<svg width="42" height="43" viewBox="0 0 42 43" fill="none" xmlns="http://www.w3.org/2000/svg">
<g clip-path="url(#clip0_24197_3475)">
<path d="M13.8976 24.3782C17.9957 24.3782 21.3298 21.0441 21.3298 16.946C21.3298 12.8479 17.9957 9.5138 13.8976 9.5138C9.79949 9.5138 6.46541 12.8479 6.46541 16.946C6.46541 21.0441 9.79949 24.3782 13.8976 24.3782ZM10.4553 17.5202C10.4854 18.3829 10.5822 19.2166 10.741 19.9881C10.1635 20.2594 9.62115 20.6079 9.12429 21.0257C8.30086 20.0638 7.76257 18.8517 7.64133 17.5202H10.4553ZM16.46 11.9461C16.3125 11.5999 16.1507 11.29 15.9767 11.0173C16.6546 11.256 17.2865 11.6093 17.845 12.0617C17.509 12.3334 17.1459 12.5697 16.7613 12.7667C16.6742 12.4885 16.5736 12.2147 16.46 11.9462V11.9461ZM11.0341 12.7667C10.6495 12.5697 10.2863 12.3334 9.95043 12.0616C10.5088 11.6092 11.1408 11.2559 11.8187 11.0173C11.6447 11.29 11.4829 11.5999 11.3354 11.9461C11.2217 12.2146 11.1212 12.4884 11.0341 12.7667ZM13.8977 10.7621C14.5442 10.7621 15.2362 11.6961 15.6913 13.1966C15.1162 13.3671 14.5135 13.4559 13.8977 13.4559C13.2819 13.4559 12.6793 13.3672 12.1042 13.1966C12.5593 11.6961 13.2512 10.7621 13.8977 10.7621ZM13.8977 14.6043C14.5963 14.6045 15.2914 14.5064 15.9627 14.3131C16.0827 14.9422 16.1631 15.634 16.191 16.3718H11.6044C11.6322 15.634 11.7128 14.9422 11.8326 14.3131C12.5039 14.5064 13.1991 14.6045 13.8977 14.6043ZM16.191 17.5201C16.1632 18.2579 16.0827 18.9497 15.9628 19.5788C15.2995 19.3878 14.6061 19.2875 13.8978 19.2875C13.1894 19.2875 12.4961 19.3877 11.8328 19.5787C11.7129 18.9496 11.6324 18.2578 11.6046 17.52H16.1911L16.191 17.5201ZM11.3354 21.9459C11.4829 22.2921 11.6448 22.602 11.8188 22.8747C11.1409 22.636 10.5089 22.2828 9.95051 21.8304C10.2864 21.5586 10.6496 21.3223 11.0341 21.1253C11.1213 21.4036 11.2218 21.6774 11.3354 21.946V21.9459ZM16.7614 21.1252C17.146 21.3222 17.5091 21.5585 17.845 21.8303C17.2866 22.2828 16.6547 22.636 15.9768 22.8746C16.1508 22.6019 16.3126 22.2921 16.4601 21.9459C16.5738 21.6774 16.6743 21.4035 16.7614 21.1252ZM13.8977 23.1298C13.2512 23.1298 12.5593 22.1958 12.1042 20.6952C12.6793 20.5247 13.282 20.4359 13.8977 20.4359C14.5134 20.4359 15.1162 20.5247 15.6913 20.6952C15.2362 22.1958 14.5442 23.1298 13.8977 23.1298ZM18.6711 21.0256C18.1742 20.6079 17.6318 20.2592 17.0544 19.988C17.2132 19.2165 17.31 18.3828 17.34 17.5201H20.154C20.0328 18.8516 19.4944 20.0637 18.6711 21.0257V21.0256ZM20.154 16.3716H17.34C17.31 15.509 17.2132 14.6752 17.0544 13.9037C17.6318 13.6324 18.1742 13.2839 18.6711 12.8662C19.4944 13.8281 20.0328 15.0402 20.154 16.3716ZM9.12429 12.8661C9.62115 13.2839 10.1636 13.6324 10.741 13.9037C10.5822 14.6753 10.4854 15.509 10.4553 16.3716H7.64125C7.76249 15.0402 8.30086 13.8281 9.12421 12.8661H9.12429ZM17.4294 26.6304C17.5817 26.6304 17.7277 26.6909 17.8354 26.7986C17.9431 26.9063 18.0036 27.0524 18.0036 27.2047C18.0036 27.3569 17.9431 27.503 17.8354 27.6107C17.7277 27.7184 17.5817 27.7789 17.4294 27.7789H10.3659C10.2136 27.7789 10.0676 27.7184 9.95988 27.6107C9.85219 27.503 9.7917 27.3569 9.7917 27.2047C9.7917 27.0524 9.85219 26.9063 9.95988 26.7986C10.0676 26.6909 10.2136 26.6304 10.3659 26.6304H17.4293H17.4294ZM18.9507 30.4528H8.84465C8.69235 30.4528 8.5463 30.3924 8.43861 30.2847C8.33093 30.177 8.27043 30.0309 8.27043 29.8786C8.27043 29.7263 8.33093 29.5803 8.43861 29.4726C8.5463 29.3649 8.69235 29.3044 8.84465 29.3044H18.9506C19.1029 29.3044 19.2489 29.3649 19.3566 29.4726C19.4643 29.5803 19.5248 29.7263 19.5248 29.8786C19.5248 30.0309 19.4643 30.177 19.3566 30.2847C19.2489 30.3924 19.1029 30.4528 18.9506 30.4528H18.9507ZM41.1376 36.7163C41.0099 36.2726 40.7268 35.9238 40.319 35.7079L27.7513 29.0509C28.1098 28.5747 28.4961 28.1191 28.9079 27.6857C28.9157 27.6859 28.9235 27.6864 28.9313 27.6864C29.027 27.6864 29.1235 27.6739 29.2186 27.6484C29.3582 27.6114 29.4891 27.5472 29.6037 27.4594C29.7184 27.3715 29.8144 27.2619 29.8864 27.1367L30.5209 26.0376C30.948 25.2976 30.6936 24.348 29.9537 23.9208L25.9542 21.6118C25.6932 21.4605 25.3934 21.3895 25.0923 21.4076V7.78901C25.0923 6.50366 24.0467 5.45793 22.7613 5.45793H20.722V2.74023C20.722 2.13304 20.4568 1.59516 19.9752 1.22569C19.4935 0.856055 18.9053 0.739079 18.319 0.896168L1.22074 5.47761L1.22091 5.47811C0.975881 5.54365 0.795166 5.76653 0.795166 6.03223V33.9346C0.795166 34.0869 0.855664 34.2329 0.963351 34.3406C1.07104 34.4483 1.21709 34.5088 1.36938 34.5088H18.4878C18.4929 34.5118 18.4974 34.5154 18.5026 34.5183L22.4857 36.818H15.7122C14.876 36.818 14.1957 37.4983 14.1957 38.3345V38.6981H14.1021C13.1543 38.6981 12.3832 39.4692 12.3832 40.4171V41.5976C12.3832 41.7499 12.4437 41.896 12.5514 42.0036C12.6591 42.1113 12.8052 42.1718 12.9574 42.1718H27.6201C27.7724 42.1718 27.9185 42.1113 28.0262 42.0036C28.1338 41.896 28.1943 41.7499 28.1943 41.5976V40.4171C28.1943 39.4693 27.4232 38.6981 26.4754 38.6981H26.3818V38.3345C26.3818 37.4983 25.7015 36.818 24.8653 36.818H24.0657C24.2952 36.683 24.4858 36.4908 24.6188 36.2602L25.2534 35.1611C25.4611 34.8012 25.4415 34.3715 25.2395 34.0391C25.4085 33.4667 25.6102 32.9044 25.8435 32.355L37.8924 39.9104C38.1632 40.0802 38.4591 40.1664 38.7642 40.1664C38.8997 40.1664 39.0372 40.1494 39.175 40.1151C39.623 40.0038 39.9818 39.7337 40.2127 39.3339L40.9795 38.0056C41.2103 37.6058 41.265 37.16 41.1374 36.7163L41.1376 36.7163ZM27.046 40.4169V41.0232H13.5317V40.4169C13.5318 40.2657 13.592 40.1207 13.6989 40.0137C13.8059 39.9067 13.9509 39.8466 14.1021 39.8464H26.4754C26.6266 39.8466 26.7717 39.9067 26.8786 40.0137C26.9856 40.1207 27.0457 40.2657 27.0459 40.4169H27.046ZM25.2334 38.3344V38.6981H15.3441V38.3344C15.3441 38.1349 15.5127 37.9663 15.7122 37.9663H24.8653C25.0648 37.9663 25.2333 38.1349 25.2333 38.3344H25.2334ZM24.2606 33.3183L20.6622 31.2407C22.259 29.4731 23.4632 27.3874 24.1956 25.1207L27.7939 27.1983C26.1971 28.9658 24.9929 31.0516 24.2606 33.3183ZM25.3799 22.6062L29.3794 24.9152C29.4714 24.9685 29.5386 25.0562 29.5661 25.1589C29.5937 25.2617 29.5793 25.3712 29.5262 25.4634L28.9161 26.52L24.2217 23.8097L24.8319 22.7531C24.8582 22.7075 24.8933 22.6676 24.9352 22.6357C24.9771 22.6038 25.0248 22.5806 25.0758 22.5673C25.1265 22.5533 25.1795 22.5496 25.2318 22.5563C25.284 22.5629 25.3343 22.5799 25.3799 22.6062ZM18.616 2.00548C18.8561 1.94116 19.0784 1.98522 19.2759 2.13681C19.4733 2.28832 19.5734 2.49127 19.5734 2.74023V5.45801H5.73099L18.616 2.00548ZM1.9436 6.60645H2.70305V33.3604H1.9436V6.60645ZM18.5699 31.3024L17.9354 32.4014C17.7678 32.6913 17.6996 33.0281 17.7413 33.3604H3.85149V6.60645H22.7612C23.4133 6.60645 23.9438 7.13694 23.9438 7.78909V22.0205C23.9051 22.0712 23.8695 22.1241 23.8373 22.1791L23.2027 23.2781C22.995 23.6379 23.0146 24.0677 23.2166 24.4001C22.5125 26.7777 21.2554 28.9549 19.5483 30.7534C19.4436 30.7511 19.339 30.7636 19.2378 30.7907C19.0981 30.8276 18.9672 30.8919 18.8526 30.9797C18.7379 31.0675 18.6418 31.1772 18.5699 31.3024ZM23.6243 35.6859C23.571 35.778 23.4833 35.8452 23.3806 35.8727C23.2778 35.9002 23.1683 35.8859 23.0761 35.8329L19.0767 33.5239C19.0312 33.4975 18.9913 33.4623 18.9594 33.4205C18.9275 33.3786 18.9042 33.3308 18.8909 33.2799C18.863 33.1756 18.8767 33.0677 18.9298 32.9758L19.5399 31.9192L24.2343 34.6295L23.6242 35.686L23.6243 35.6859ZM39.985 37.4314L39.2182 38.7597C39.1429 38.8901 39.0442 38.9644 38.8982 39.0007C38.7522 39.0371 38.6302 39.0177 38.5026 38.9376L26.3358 31.3082C26.5664 30.8606 26.8183 30.4243 27.0907 30.0008L39.7814 36.7229C39.9143 36.7933 39.9922 36.8892 40.0337 37.0338C40.0753 37.1784 40.0603 37.3011 39.985 37.4314Z" fill="white"/>
</g>
<defs>
<clipPath id="clip0_24197_3475">
<rect width="42" height="42" fill="white" transform="translate(0 0.5)"/>
</clipPath>
</defs>
</svg>
