<svg width="42" height="43" viewBox="0 0 42 43" fill="none" xmlns="http://www.w3.org/2000/svg">
<path fill-rule="evenodd" clip-rule="evenodd" d="M36.6462 26.8844C36.9621 26.8844 37.2183 27.1406 37.2183 27.4564C37.2183 27.7723 36.9621 28.0285 36.6462 28.0285H34.4286C34.1128 28.0285 33.8566 27.7723 33.8566 27.4564C33.8566 27.1406 34.1128 26.8844 34.4286 26.8844H36.6462ZM36.6462 29.4775C36.9621 29.4775 37.2183 29.7337 37.2183 30.0495C37.2183 30.3653 36.9621 30.6215 36.6462 30.6215H33.8835C33.5676 30.6215 33.3114 30.3653 33.3114 30.0495C33.3114 29.7337 33.5676 29.4775 33.8835 29.4775H36.6462ZM21.2793 28.0285C20.9634 28.0285 20.7072 27.7723 20.7072 27.4564C20.7072 27.1406 20.9634 26.8844 21.2793 26.8844H23.4969C23.8127 26.8844 24.0689 27.1406 24.0689 27.4564C24.0689 27.7723 23.8127 28.0285 23.4969 28.0285H21.2793ZM21.2793 30.6215C20.9634 30.6215 20.7072 30.3653 20.7072 30.0495C20.7072 29.7337 20.9634 29.4775 21.2793 29.4775H24.042C24.3579 29.4775 24.6141 29.7337 24.6141 30.0495C24.6141 30.3653 24.3579 30.6215 24.042 30.6215H21.2793ZM33.2073 21.4949C33.3013 21.6629 33.3727 21.8536 33.4223 22.0577C33.4752 22.2761 33.5013 22.5122 33.5013 22.7465H33.5038C33.5038 22.9759 33.4769 23.2111 33.4223 23.4353C33.2543 24.1317 32.8267 24.6752 32.1228 24.6752H32.0556L31.6197 25.8579C31.4727 26.2577 31.2761 26.5769 31.0417 26.8054C30.7595 27.0801 30.4294 27.2246 30.0648 27.2246H29.5827V32.9299C29.9548 32.7165 30.3672 32.6065 30.7519 32.6065H38.6059V21.4949H33.2073ZM30.8385 24.6752L30.5478 25.4648C30.4596 25.7033 30.358 25.8797 30.2471 25.9873C30.1841 26.0486 30.1228 26.0805 30.0657 26.0805H28.2219C28.1647 26.0805 28.1034 26.0486 28.0404 25.9873C27.9295 25.8797 27.8271 25.7033 27.7397 25.4648L27.4491 24.6752H30.8385ZM26.2311 24.6752H26.1639C25.4599 24.6752 25.0324 24.1317 24.8644 23.4353C24.8098 23.2111 24.7829 22.975 24.7829 22.7465C24.7829 22.5172 24.8098 22.282 24.8644 22.0577C24.9139 21.8536 24.9853 21.6629 25.0794 21.4949H19.4161V32.6073H27.2701C27.6549 32.6073 28.0665 32.7173 28.4394 32.9307V27.2254H28.2219C27.8581 27.2254 27.528 27.0809 27.2449 26.8063C27.0106 26.5786 26.814 26.2586 26.667 25.8587L26.2311 24.6752ZM32.1228 21.9611C32.1959 21.9611 32.2648 22.1207 32.3143 22.3249C32.3463 22.4567 32.3622 22.6012 32.3622 22.7457H32.3597C32.3597 22.8969 32.3446 23.0414 32.3143 23.1665C32.2648 23.3707 32.1959 23.5303 32.1228 23.5303H26.163C26.0899 23.5303 26.0211 23.3707 25.9715 23.1665C25.9413 23.0405 25.9261 22.8969 25.9261 22.7457C25.9261 22.5945 25.9413 22.45 25.9715 22.3249C26.0211 22.1207 26.0899 21.9611 26.163 21.9611H32.1228ZM28.4411 6.44634C28.4411 6.29529 28.5011 6.15043 28.6079 6.04363C28.7147 5.93682 28.8596 5.87682 29.0106 5.87682C29.1617 5.87682 29.3065 5.93682 29.4133 6.04363C29.5201 6.15043 29.5801 6.29529 29.5801 6.44634V8.44806C29.5801 8.59911 29.5201 8.74397 29.4133 8.85077C29.3065 8.95758 29.1617 9.01758 29.0106 9.01758C28.8596 9.01758 28.7147 8.95758 28.6079 8.85077C28.5011 8.74397 28.4411 8.59911 28.4411 8.44806V6.44634ZM19.674 16.3525C19.523 16.3525 19.3781 16.2925 19.2713 16.1857C19.1645 16.0788 19.1045 15.934 19.1045 15.7829C19.1045 15.6319 19.1645 15.487 19.2713 15.3802C19.3781 15.2734 19.523 15.2134 19.674 15.2134H21.6757C21.8268 15.2134 21.9717 15.2734 22.0785 15.3802C22.1853 15.487 22.2453 15.6319 22.2453 15.7829C22.2453 15.934 22.1853 16.0788 22.0785 16.1857C21.9717 16.2925 21.8268 16.3525 21.6757 16.3525H19.674ZM22.0042 9.58542C21.7807 9.36198 21.7807 8.99994 22.0042 8.7765C22.2276 8.55306 22.5897 8.55306 22.8131 8.7765L24.2285 10.1919C24.4519 10.4153 24.4519 10.7774 24.2285 11.0008C24.0051 11.2243 23.643 11.2243 23.4196 11.0008L22.0042 9.58542ZM38.3472 15.2101C38.6631 15.2101 38.9193 15.4663 38.9193 15.7821C38.9193 16.0979 38.6631 16.3541 38.3472 16.3541H36.3455C36.0297 16.3541 35.7735 16.0979 35.7735 15.7821C35.7735 15.4663 36.0297 15.2101 36.3455 15.2101H38.3472ZM35.2081 8.7765C35.4316 8.55306 35.7936 8.55306 36.0171 8.7765C36.2405 8.99994 36.2405 9.36198 36.0171 9.58542L34.6017 11.0008C34.3782 11.2243 34.0162 11.2243 33.7927 11.0008C33.5693 10.7774 33.5693 10.4153 33.7927 10.1919L35.2081 8.7765ZM29.1433 10.5607C27.5717 10.5607 26.1487 11.1982 25.1181 12.2281C24.0882 13.2579 23.4507 14.6817 23.4507 16.2533C23.4507 17.8015 24.1798 19.127 25.0063 20.3509H18.8441C18.8298 20.3509 18.8164 20.3517 18.8029 20.3525C18.3073 20.1736 17.7798 20.0317 17.2279 19.9267C16.734 19.8326 16.2199 19.7704 15.6907 19.7385C15.684 19.7326 15.6773 19.7259 15.6697 19.72L15.3892 18.3559C16.0343 17.9812 16.6332 17.4991 17.1557 16.9312C18.3653 15.6149 19.1709 13.8333 19.1709 11.8459C19.1709 11.6342 19.1541 11.3234 19.1339 10.9605C19.0818 10.0096 19.0087 8.6715 19.2145 7.43922C19.2196 7.41654 19.2238 7.3947 19.2263 7.37202C19.2381 7.30314 19.2515 7.23426 19.2649 7.16622C19.5102 5.96754 19.4598 4.91586 19.2213 4.14558C19.0978 3.74742 18.9231 3.41478 18.7097 3.16278C18.4619 2.87046 18.1612 2.67978 17.8218 2.6109C17.5891 2.56302 17.3481 2.57478 17.1036 2.65038C14.8163 3.35934 14.0418 3.15942 13.2631 2.9595C12.8163 2.84442 12.3677 2.72934 11.7243 2.72934C11.4219 2.72934 11.1178 2.74782 10.8129 2.78478C9.08667 2.9931 7.43271 3.7911 6.21051 5.12166C4.98999 6.4497 4.20207 8.29938 4.20207 10.6111C4.20207 11.0277 4.22811 11.462 4.28271 11.9131C4.59015 14.4616 5.53683 16.1937 6.78675 17.3369C7.23699 17.7485 7.72503 18.082 8.23491 18.3483L7.83003 19.736C5.63847 19.862 3.67203 20.5239 2.25831 21.7335C0.862227 22.9271 0.0113073 24.634 0.0113073 26.8617C0.0113073 28.2973 0.00962735 28.75 0.00878735 29.2784C0.00374735 31.0382 -0.00129265 33.1844 0.00290735 34.7879C0.00458735 35.3793 0.245667 35.9144 0.633747 36.3008C1.02267 36.688 1.55775 36.9283 2.14575 36.9283H4.51959V37.8388C4.51959 38.5495 4.80939 39.1937 5.27559 39.6608C5.74263 40.1278 6.38691 40.4168 7.09755 40.4168H16.3854C17.0961 40.4168 17.7403 40.127 18.2074 39.6608C18.6744 39.1937 18.9634 38.5495 18.9634 37.8388V36.0001H22.2621L22.3293 36.1454C22.4569 36.4217 22.6115 36.6603 22.7862 36.8636C23.2306 37.3835 23.7951 37.6675 24.3839 37.7582C24.9559 37.8464 25.549 37.7473 26.0731 37.5045C26.2033 37.444 26.3302 37.3743 26.4511 37.2962C26.5427 37.3189 26.6452 37.3315 26.7603 37.3315H31.2585C31.9926 37.3315 32.2186 36.8291 32.4445 36.3268C32.5176 36.1639 32.5873 36.0009 32.589 36.0009H41.4258C41.7417 36.0009 41.9979 35.7447 41.9979 35.4289V22.3585C41.9979 22.0426 41.7417 21.7864 41.4258 21.7864H39.7483V20.9237C39.7483 20.6079 39.4921 20.3517 39.1763 20.3517H33.2946C34.1128 19.127 34.8335 17.7931 34.8335 16.2542C34.8335 14.6825 34.1959 13.2596 33.1661 12.2289C32.1379 11.1982 30.715 10.5607 29.1433 10.5607ZM32.3597 13.037C33.1829 13.8602 33.6919 14.9975 33.6919 16.2533C33.6919 17.8073 32.689 19.2454 31.7599 20.5659C31.7457 20.5844 31.7314 20.6037 31.7196 20.6239C31.6793 20.6818 31.6373 20.7406 31.5835 20.8179H26.7208L26.5965 20.6423C26.5771 20.6087 26.5545 20.5768 26.5293 20.5474L26.5251 20.5415C25.5952 19.2278 24.5939 17.8124 24.5939 16.2542C24.5939 14.9984 25.1029 13.861 25.9261 13.0378C26.7493 12.2146 27.8867 11.7056 29.1425 11.7056C30.3991 11.7047 31.5365 12.2138 32.3597 13.037ZM39.75 22.9297V33.1793C39.75 33.4952 39.4938 33.7514 39.178 33.7514H30.7519C30.5109 33.7514 30.2463 33.8371 30.0195 34.0025C29.8315 34.1392 29.6831 34.3233 29.5894 34.5359C29.2895 35.2172 28.7284 35.1995 28.4302 34.5301C28.3365 34.3195 28.1891 34.1372 28.0026 34.0017C27.7758 33.8362 27.5112 33.7505 27.2701 33.7505H18.8433C18.5274 33.7505 18.2712 33.4943 18.2712 33.1785V22.9297H17.1658V34.856H25.4305C26.1647 34.856 26.3907 35.3583 26.6166 35.8606C26.6712 35.9833 26.7241 36.1051 26.7485 36.1588C26.7603 36.1672 26.772 36.1765 26.7829 36.1865H31.2593C31.261 36.1865 31.3307 36.0236 31.4038 35.8606C31.6297 35.3583 31.8549 34.856 32.5899 34.856H40.8546V22.9297H39.75ZM18.2712 21.7856H16.5937C16.2779 21.7856 16.0217 22.0418 16.0217 22.3576V35.428C16.0217 35.7439 16.2779 36.0001 16.5937 36.0001H17.8201V37.8388C17.8201 38.2336 17.6589 38.5923 17.3993 38.8519C17.1389 39.1123 16.7811 39.2727 16.3863 39.2727H7.09839C6.70359 39.2727 6.34491 39.1114 6.08535 38.8519C5.82495 38.5915 5.66451 38.2336 5.66451 37.8388V26.2082C5.66451 25.8923 5.40831 25.6361 5.09247 25.6361C4.77663 25.6361 4.52043 25.8923 4.52043 26.2082V35.7842H2.14659C1.87023 35.7842 1.61991 35.6725 1.43847 35.4919C1.25619 35.3104 1.14363 35.0609 1.14279 34.7871C1.13775 33.1835 1.14363 31.0373 1.14867 29.2775C1.15287 27.8487 1.15623 27.1381 1.15623 26.8609C1.15623 24.9969 1.85511 23.5807 3.00087 22.6004C4.24407 21.5369 6.01731 20.9632 8.01231 20.8683L10.0031 23.2363L8.84643 24.9633C8.67087 25.2245 8.74143 25.579 9.00267 25.7546L9.01611 25.7638L9.94095 26.3443L8.86911 32.7358C8.84223 32.8979 8.88591 33.055 8.97831 33.176L11.2816 36.3176C11.3259 36.3781 11.3817 36.4292 11.4458 36.4681C11.5099 36.507 11.5811 36.5329 11.6552 36.5443C11.7293 36.5557 11.8049 36.5524 11.8777 36.5345C11.9506 36.5166 12.0192 36.4846 12.0796 36.4402C12.1224 36.4091 12.1594 36.3722 12.1913 36.3327L14.6752 33.1751C14.7266 33.1099 14.7631 33.0343 14.7821 32.9534C14.8011 32.8726 14.8022 32.7886 14.7852 32.7073L13.7184 26.3434L14.6433 25.763C14.9095 25.595 14.9902 25.243 14.8222 24.9767C14.8163 24.9683 14.8113 24.9591 14.8054 24.9515L13.5672 23.1027L15.4463 20.8675C15.9856 20.8927 16.5106 20.9523 17.0171 21.0489C17.4505 21.1312 17.8705 21.2413 18.2712 21.3782V21.7856ZM25.6321 36.4503C25.6204 36.4562 25.6078 36.4621 25.596 36.4679C25.2693 36.6191 24.9039 36.6813 24.5553 36.6275C24.2243 36.5763 23.9059 36.4167 23.6548 36.1219C23.622 36.0841 23.5901 36.0429 23.5599 36.0001H25.4314C25.4331 36.0001 25.5028 36.163 25.5759 36.326C25.5943 36.3671 25.6128 36.4091 25.6321 36.4503ZM12.5928 22.492H10.8649L8.89683 20.1518L9.29163 18.7969C10.2954 19.1354 11.3412 19.2614 12.3257 19.2471C13.0002 19.2379 13.6773 19.1018 14.3283 18.859L14.587 20.1199L12.5928 22.492ZM17.9436 8.84454C17.9201 9.65094 17.9613 10.4103 17.9949 11.0185C18.0125 11.3368 18.0268 11.6098 18.0268 11.845C18.0268 13.5284 17.343 15.0395 16.3157 16.1567C15.7882 16.7313 15.1716 17.2 14.5131 17.5343C14.4971 17.5419 14.4811 17.5495 14.466 17.5579C13.7747 17.9014 13.0389 18.0955 12.3114 18.1055C11.2774 18.1198 10.1711 17.9627 9.15387 17.5226C9.14967 17.5209 9.14463 17.5184 9.14043 17.5167C8.57511 17.2706 8.03751 16.9363 7.55535 16.4953C6.51963 15.5477 5.72499 14.092 5.43687 11.9282C6.67587 11.7887 7.67631 11.4099 8.43903 10.7908C9.18243 10.1877 9.68643 9.37206 9.94935 8.34474C10.2425 8.44218 10.5592 8.53626 10.8918 8.6253C12.34 9.01338 14.1183 9.30654 15.6328 9.2763C16.5148 9.26118 17.317 9.13014 17.9436 8.84454ZM5.34783 10.7917C5.34699 10.7312 5.34615 10.6707 5.34615 10.6111C5.34615 8.6085 6.01563 7.0209 7.05135 5.89446C8.08371 4.77054 9.48399 4.09602 10.9481 3.91962C11.2035 3.88854 11.463 3.87342 11.7251 3.87342C12.2442 3.87342 12.6138 3.96834 12.9826 4.06326C13.9175 4.3035 14.8491 4.5429 17.4396 3.7407C17.4976 3.72306 17.5497 3.71886 17.595 3.7281C17.6748 3.74406 17.758 3.8037 17.8395 3.9003C17.9554 4.03722 18.0553 4.23378 18.1318 4.48074C18.3191 5.08554 18.3535 5.93814 18.1486 6.93858C18.1326 7.0167 18.1175 7.09566 18.1041 7.17378C18.0965 7.2015 18.0881 7.2267 18.0789 7.25022C17.8361 7.8693 16.8449 8.11374 15.6109 8.1381C14.2165 8.16582 12.5533 7.88862 11.1867 7.52238C10.6348 7.37454 10.1358 7.21326 9.72675 7.05282C9.64636 7.02129 9.55985 7.00845 9.47377 7.01526C9.38769 7.02207 9.30428 7.04835 9.22984 7.09212C9.15541 7.13589 9.09189 7.19601 9.0441 7.26793C8.9963 7.33984 8.96548 7.42168 8.95395 7.50726C8.80023 8.56398 8.38863 9.36366 7.71999 9.9063C7.13703 10.3801 6.34659 10.6749 5.34783 10.7917ZM11.1077 23.6361H12.5525L13.5387 25.1095L12.8129 25.5647C12.7107 25.6224 12.6288 25.71 12.5781 25.8158C12.5275 25.9216 12.5106 26.0404 12.5298 26.1561L13.621 32.6661L11.7579 35.0349L10.035 32.6846L11.1295 26.1553C11.1665 25.9352 11.0707 25.705 10.8708 25.579L10.1207 25.1086L11.1077 23.6361Z" fill="white"/>
</svg>
