<svg width="40" height="36" viewBox="0 0 40 36" fill="none" xmlns="http://www.w3.org/2000/svg">
<g clip-path="url(#clip0_24197_3456)">
<path d="M38.5294 17.5165H1.47059C1.32725 17.5165 1.18979 17.5674 1.08844 17.6581C0.987084 17.7488 0.930145 17.8718 0.930145 18C0.930145 22.5576 2.91372 26.8423 6.5156 30.0651C10.1175 33.2878 14.9063 35.0625 20 35.0625C25.0937 35.0625 29.8826 33.2877 33.4844 30.065C37.0863 26.8423 39.0699 22.5576 39.0699 18C39.0699 17.8718 39.0129 17.7488 38.9116 17.6581C38.8102 17.5674 38.6727 17.5165 38.5294 17.5165ZM20.5404 27.4374C22.6836 27.4629 24.7693 27.6397 26.7275 27.9558C26.5422 28.3429 26.3407 28.7237 26.1233 29.0972C24.5894 31.7273 22.6243 33.2693 20.5404 33.4972V27.4374ZM19.4596 33.4972C17.3757 33.2694 15.4106 31.7273 13.8767 29.0972C13.6593 28.7236 13.4578 28.3428 13.2725 27.9557C15.2307 27.6396 17.3161 27.4628 19.4596 27.4373V33.4972ZM12.8652 27.0402C11.8383 24.5467 11.2628 21.5944 11.2085 18.4836H19.4596V26.4702C17.1747 26.4967 14.95 26.6913 12.8652 27.0402ZM12.9184 29.5447C14.1626 31.678 15.6987 33.1703 17.3885 33.9256C13.527 33.4209 10.06 31.8145 7.39961 29.4754C8.84722 28.9263 10.4609 28.4803 12.1898 28.1472C12.41 28.6222 12.6531 29.0885 12.9184 29.5447ZM27.0816 29.5447C27.3468 29.0885 27.5899 28.6223 27.8101 28.1473C29.5391 28.4804 31.1525 28.9263 32.6003 29.4754C29.9399 31.8144 26.4729 33.4208 22.6114 33.9255C24.3013 33.1703 25.8375 31.6779 27.0816 29.5447ZM27.1347 27.0403C25.0498 26.6914 22.8252 26.4967 20.5404 26.4702V18.4836H28.7914C28.7372 21.5945 28.1617 24.5468 27.1347 27.0403ZM10.1276 18.4836C10.1813 21.6487 10.7601 24.6644 11.7949 27.2352C9.91235 27.6072 8.16117 28.1094 6.60362 28.7304C3.8615 25.9926 2.14946 22.4126 2.01906 18.4836H10.1276ZM33.3964 28.7304C31.8385 28.1094 30.0877 27.6072 28.2051 27.2353C29.2401 24.6643 29.8187 21.6488 29.8724 18.4835H37.981C37.8506 22.4126 36.1385 25.9926 33.3964 28.7304ZM21.5462 15.7033L22.3035 16.0232C22.273 16.0897 22.2572 16.1609 22.2572 16.2328C22.2572 16.5391 22.5363 16.7888 22.8785 16.7888C23.2208 16.7888 23.4999 16.5391 23.4999 16.2328C23.4999 16.2222 23.4987 16.2118 23.4981 16.2013C23.749 16.1137 23.9501 15.9475 24.0651 15.7293L27.4585 9.29744C27.8057 9.38517 28.1898 9.35291 28.5248 9.1787L31.171 7.81176V9.3735C31.171 9.54005 31.1817 9.66784 31.2066 9.77616L30.6554 11.7714L28.5318 14.8541C28.4295 15.0029 28.3613 15.1685 28.331 15.3411C28.3007 15.5137 28.309 15.6899 28.3554 15.8597C28.4007 16.0296 28.4833 16.1898 28.5983 16.331C28.7133 16.4722 28.8584 16.5916 29.0254 16.6823C29.2579 16.8098 29.5254 16.8772 29.7981 16.8771C30.2991 16.8771 30.7885 16.651 31.0676 16.2422L33.3056 12.9924C33.3984 12.8568 33.4632 12.7073 33.4968 12.5511L33.5732 12.2751L34.2331 12.9102L35.5413 16.0105C35.6101 16.1752 35.7146 16.3261 35.849 16.4544C35.9834 16.5827 36.1449 16.6859 36.3241 16.758C36.5177 16.8368 36.7278 16.8777 36.9405 16.8779C37.1185 16.8779 37.2968 16.8491 37.4683 16.7913C37.6524 16.7298 37.821 16.6363 37.9645 16.516C38.1079 16.3958 38.2232 16.2513 38.3037 16.0909C38.3853 15.931 38.4306 15.7581 38.437 15.5824C38.4434 15.4066 38.4107 15.2315 38.341 15.0671L38.3408 15.0667L36.9329 11.7301C36.858 11.5509 36.7406 11.3883 36.5888 11.2535L34.5386 9.22277V8.712C34.548 8.71476 34.5571 8.71828 34.5666 8.72056L37.3247 9.38883C37.5 9.43169 37.683 9.44306 37.8632 9.42229C38.0434 9.40152 38.2172 9.34901 38.3746 9.26781C38.695 9.10333 38.9247 8.83703 39.0213 8.51802C39.1179 8.19902 39.0699 7.86537 38.8861 7.57862C38.7023 7.29187 38.4046 7.08636 38.0534 7.00126L35.8791 6.45277L34.0546 4.77712C33.8653 4.60483 33.6326 4.47572 33.376 4.40064C34.4074 4.36369 35.2339 3.60174 35.2339 2.66994C35.2339 1.71465 34.3653 0.937439 33.2976 0.937439C32.2299 0.937439 31.3614 1.71458 31.3614 2.66994C31.3614 3.45336 31.9457 4.11659 32.7448 4.33004C32.4071 4.34731 32.1981 4.44126 31.9965 4.53314L31.9238 4.56609C31.9142 4.57038 31.9048 4.57492 31.8955 4.5797L27.1385 7.03704C26.9811 7.11834 26.8433 7.22676 26.7331 7.35602C26.6229 7.48528 26.5425 7.63281 26.4964 7.79007C26.409 8.08511 26.4465 8.3914 26.5987 8.66171L25.7541 10.2627L24.6607 9.80082C24.5362 9.74795 24.4012 9.7177 24.2636 9.71182C24.126 9.70594 23.9884 9.72454 23.8588 9.76656C23.729 9.80778 23.6095 9.87164 23.5074 9.95444C23.4053 10.0372 23.3226 10.1373 23.264 10.2489L21.0454 14.4537C20.926 14.6799 20.9124 14.9348 21.0072 15.1712C21.1019 15.4075 21.2933 15.5965 21.5462 15.7033ZM32.4439 12.3325C32.4411 12.3427 32.4386 12.3531 32.4366 12.3634C32.4278 12.4071 32.4101 12.4488 32.3844 12.4867L30.1463 15.7366C30.0902 15.8186 29.9999 15.8774 29.8954 15.9C29.7909 15.9226 29.6806 15.9072 29.5888 15.8571C29.4964 15.8066 29.4315 15.7269 29.406 15.6327C29.3805 15.5385 29.3977 15.441 29.453 15.36L31.6199 12.2146C31.6492 12.172 31.6711 12.1255 31.6844 12.0769L32.0378 10.7976L32.6937 11.4289L32.4439 12.3325ZM35.4466 7.34852L37.7655 7.93348C37.8039 7.94266 37.8398 7.95857 37.8713 7.98029C37.9027 8.002 37.929 8.02908 37.9487 8.05996C37.9889 8.12262 37.9993 8.19543 37.9782 8.2652C37.9572 8.33497 37.907 8.39313 37.8369 8.42905C37.8025 8.44681 37.7645 8.45829 37.7251 8.46282C37.6857 8.46735 37.6457 8.46484 37.6074 8.45544L34.9889 7.82102L34.5387 7.41635V6.60772L35.2061 7.22058C35.2723 7.28137 35.3553 7.32549 35.4466 7.34852ZM32.4422 2.66994C32.4422 2.24794 32.8259 1.90454 33.2976 1.90454C33.7692 1.90454 34.1529 2.24787 34.1529 2.66994C34.1529 3.09201 33.7692 3.43533 33.2976 3.43533C32.8259 3.43533 32.4422 3.09194 32.4422 2.66994ZM27.5412 8.03779C27.5512 8.00363 27.5686 7.97157 27.5924 7.94345C27.6163 7.91533 27.6461 7.89171 27.6802 7.87393L32.4232 5.42384L32.4872 5.39483C32.6667 5.31297 32.7093 5.29356 32.8549 5.29356C33.0124 5.29352 33.1636 5.34882 33.2759 5.44753L33.2757 5.44774L33.2951 5.46556C33.3996 5.56509 33.4579 5.69654 33.4579 5.83313V9.40894C33.4579 9.52872 33.5076 9.64422 33.5973 9.73306L35.7977 11.9125C35.8057 11.9204 35.814 11.9281 35.8226 11.9356C35.8663 11.9736 35.8997 12.0191 35.9216 12.0714L37.3296 15.408C37.3686 15.5009 37.3649 15.6017 37.3192 15.6921C37.2735 15.7824 37.1912 15.8514 37.0874 15.8863C37.0365 15.9036 36.9822 15.9117 36.9277 15.9101C36.8732 15.9086 36.8196 15.8973 36.77 15.8771C36.7202 15.857 36.6754 15.8283 36.6381 15.7927C36.6008 15.757 36.5718 15.7151 36.5527 15.6693L35.2069 12.4797C35.1821 12.421 35.1448 12.3672 35.0971 12.3213L32.4544 9.77809C32.4177 9.73842 32.3806 9.69913 32.3429 9.66025C32.3133 9.62951 32.2774 9.5922 32.2625 9.57383C32.2587 9.55552 32.2519 9.50475 32.2519 9.3735V6.97425C32.2519 6.88936 32.2269 6.80596 32.1795 6.73244C32.1321 6.65892 32.0639 6.59787 31.9817 6.55543C31.8995 6.51299 31.8063 6.49065 31.7114 6.49066C31.6166 6.49067 31.5234 6.51303 31.4412 6.55549L27.983 8.34187C27.8401 8.41606 27.6557 8.37178 27.572 8.24288C27.552 8.21221 27.5389 8.17829 27.5337 8.14309C27.5284 8.10788 27.531 8.0721 27.5412 8.03779ZM24.2279 10.6875L25.2927 11.1373L23.1013 15.2908L22.0364 14.841L24.2279 10.6875ZM3.58919 16.5018C3.63573 16.5779 3.70431 16.6415 3.78774 16.6857C3.87118 16.73 3.96639 16.7533 4.06339 16.7533C4.16039 16.7533 4.25561 16.73 4.33904 16.6857C4.42248 16.6415 4.49106 16.5779 4.53759 16.5018C4.71532 16.2109 4.96392 15.862 5.22719 15.4927C6.44342 13.7859 8.28153 11.2068 6.33255 9.46296C5.08127 8.34346 3.04535 8.34346 1.79416 9.46296C-0.126186 11.1812 1.58392 13.6094 2.83258 15.3825C3.11499 15.7834 3.38159 16.162 3.58919 16.5018ZM2.55849 10.1467C2.9734 9.77547 3.5184 9.58985 4.06339 9.58985C4.60839 9.58985 5.15338 9.77547 5.56829 10.1467C6.80312 11.2515 5.73158 12.9859 4.31578 14.9726C4.23085 15.0919 4.14731 15.2089 4.06679 15.3234C3.9638 15.1745 3.85656 15.0224 3.74708 14.8669C2.33143 12.8566 1.34497 11.2326 2.55849 10.1467ZM4.05891 12.0399C3.63366 12.0399 3.28685 11.7296 3.28685 11.3492C3.28685 10.9687 3.63366 10.6584 4.05891 10.6584C4.48416 10.6584 4.83097 10.9687 4.83097 11.3492C4.83097 11.7296 4.48416 12.0399 4.05891 12.0399ZM18.4391 16.2698C18.4391 16.1415 18.4961 16.0185 18.5974 15.9279C18.6988 15.8372 18.8362 15.7862 18.9796 15.7862H20.0604C20.2038 15.7862 20.3412 15.8372 20.4426 15.9279C20.544 16.0185 20.6009 16.1415 20.6009 16.2698C20.6009 16.398 20.544 16.521 20.4426 16.6117C20.3412 16.7024 20.2038 16.7533 20.0604 16.7533H18.9796C18.8362 16.7533 18.6988 16.7024 18.5974 16.6117C18.4961 16.521 18.4391 16.398 18.4391 16.2698ZM7.09009 15.7862C7.23343 15.7862 7.37089 15.8372 7.47224 15.9279C7.5736 16.0185 7.63054 16.1415 7.63054 16.2698C7.63054 16.398 7.5736 16.521 7.47224 16.6117C7.37089 16.7024 7.23343 16.7533 7.09009 16.7533H6.00921C5.86588 16.7533 5.72841 16.7024 5.62706 16.6117C5.52571 16.521 5.46877 16.398 5.46877 16.2698C5.46877 16.1415 5.52571 16.0185 5.62706 15.9279C5.72841 15.8372 5.86588 15.7862 6.00921 15.7862H7.09009ZM14.1157 16.2698C14.1157 16.1415 14.1726 16.0185 14.274 15.9279C14.3753 15.8372 14.5128 15.7862 14.6561 15.7862H15.737C15.8803 15.7862 16.0178 15.8372 16.1191 15.9279C16.2205 16.0185 16.2774 16.1415 16.2774 16.2698C16.2774 16.398 16.2205 16.521 16.1191 16.6117C16.0178 16.7024 15.8803 16.7533 15.737 16.7533H14.6561C14.5128 16.7533 14.3753 16.7024 14.274 16.6117C14.1726 16.521 14.1157 16.398 14.1157 16.2698ZM9.79222 16.2698C9.79222 16.1415 9.84916 16.0185 9.95051 15.9279C10.0519 15.8372 10.1893 15.7862 10.3327 15.7862H11.4135C11.5569 15.7862 11.6943 15.8372 11.7957 15.9279C11.897 16.0185 11.954 16.1415 11.954 16.2698C11.954 16.398 11.897 16.521 11.7957 16.6117C11.6943 16.7024 11.5569 16.7533 11.4135 16.7533H10.3327C10.1893 16.7533 10.0519 16.7024 9.95051 16.6117C9.84916 16.521 9.79222 16.398 9.79222 16.2698Z" fill="white"/>
</g>
<defs>
<clipPath id="clip0_24197_3456">
<rect width="39.5294" height="35.3684" fill="white" transform="translate(0.235291 0.315796)"/>
</clipPath>
</defs>
</svg>
