<svg width="32" height="33" viewBox="0 0 32 33" fill="none" xmlns="http://www.w3.org/2000/svg">
<path d="M16 6.96973C10.5438 6.96973 6.10438 11.4091 6.10438 16.8654C6.10438 22.3216 10.5438 26.761 16 26.761C21.4563 26.761 25.8956 22.3222 25.8956 16.8654C25.8956 11.4085 21.4563 6.96973 16 6.96973ZM16 26.011C10.9569 26.011 6.85438 21.9085 6.85438 16.8654C6.85438 11.8222 10.9569 7.71973 16 7.71973C21.0425 7.71973 25.1456 11.8222 25.1456 16.8654C25.1456 21.9079 21.0431 26.011 16 26.011ZM31.0625 14.301C31.0625 14.1185 30.9313 13.9629 30.7519 13.9316L28.3031 13.5041C28.0209 12.4691 27.6084 11.474 27.0756 10.5429L28.5056 8.50786C28.5565 8.4357 28.5802 8.34786 28.5726 8.25989C28.5649 8.17192 28.5264 8.0895 28.4638 8.02723L24.8375 4.40161C24.7751 4.33927 24.6927 4.30091 24.6048 4.29325C24.5169 4.28559 24.4291 4.30913 24.3569 4.35973L22.3219 5.78973C21.3907 5.25684 20.3957 4.84437 19.3606 4.56223L18.9331 2.11348C18.9019 1.93411 18.7456 1.80286 18.5638 1.80286H13.4356C13.2531 1.80286 13.0975 1.93411 13.0663 2.11348L12.6388 4.56223C11.6037 4.84453 10.6087 5.25699 9.6775 5.78973L7.64313 4.35973C7.57092 4.30897 7.48311 4.28534 7.39518 4.293C7.30725 4.30067 7.22484 4.33913 7.1625 4.40161L3.53625 8.02786C3.47391 8.09028 3.43555 8.17267 3.4279 8.26055C3.42024 8.34844 3.44377 8.43622 3.49438 8.50848L4.92438 10.5429C4.39154 11.4741 3.97888 12.4691 3.69625 13.5041L1.24812 13.9316C1.06875 13.9629 0.9375 14.1191 0.9375 14.301V19.4297C0.9375 19.6122 1.06875 19.7679 1.24812 19.7991L3.69688 20.2266C3.97901 21.2617 4.39148 22.2567 4.92438 23.1879L3.49438 25.2229C3.44347 25.295 3.41975 25.3829 3.42742 25.4708C3.43508 25.5588 3.47364 25.6412 3.53625 25.7035L7.1625 29.3297C7.22493 29.3921 7.30731 29.4304 7.3952 29.4381C7.48308 29.4457 7.57086 29.4222 7.64313 29.3716L9.67813 27.9416C10.6093 28.4745 11.6043 28.887 12.6394 29.1691L13.0669 31.6179C13.0981 31.7972 13.2544 31.9285 13.4363 31.9285H18.565C18.7475 31.9285 18.9031 31.7972 18.9344 31.6179L19.3619 29.1691C20.397 28.887 21.392 28.4745 22.3231 27.9416L24.3575 29.3716C24.4297 29.4224 24.5175 29.446 24.6055 29.4383C24.6934 29.4307 24.7758 29.3922 24.8381 29.3297L28.4644 25.7035C28.5267 25.6411 28.5651 25.5587 28.5727 25.4708C28.5804 25.3829 28.5569 25.2951 28.5063 25.2229L27.0763 23.1885C27.6092 22.2573 28.0219 21.2623 28.3044 20.2272L30.7525 19.7997C30.9319 19.7685 31.0631 19.6122 31.0631 19.4304V16.866L31.0625 14.301ZM30.3125 19.1141L27.9375 19.5285C27.8662 19.541 27.8 19.5739 27.7469 19.6231C27.6938 19.6723 27.656 19.7358 27.6381 19.806C27.3535 20.9341 26.9054 22.0144 26.3081 23.0129C26.2709 23.0751 26.2525 23.1467 26.2552 23.2191C26.2578 23.2916 26.2814 23.3617 26.3231 23.421L27.71 25.3947L24.5294 28.5754L22.5556 27.1885C22.4963 27.1468 22.4262 27.1232 22.3538 27.1205C22.2814 27.1179 22.2097 27.1363 22.1475 27.1735C21.1491 27.7706 20.0687 28.2185 18.9406 28.5029C18.7969 28.5391 18.6881 28.656 18.6631 28.8022L18.2488 31.1772L16 31.1779H13.7513L13.3369 28.8029C13.3243 28.7315 13.2915 28.6654 13.2423 28.6123C13.193 28.5591 13.1295 28.5214 13.0594 28.5035C11.9313 28.2191 10.8509 27.7712 9.8525 27.1741C9.79026 27.137 9.71863 27.1187 9.64622 27.1214C9.57382 27.124 9.50373 27.1476 9.44438 27.1891L7.47063 28.576L4.29 25.3954L5.67688 23.4216C5.76188 23.3004 5.76813 23.1404 5.69188 23.0135C5.09466 22.0151 4.64679 20.9347 4.3625 19.8066C4.34491 19.7363 4.30723 19.6726 4.25408 19.6233C4.20092 19.5741 4.13457 19.5413 4.06313 19.5291L1.68813 19.1147L1.6875 16.8654V14.6166L4.0625 14.2022C4.13382 14.1897 4.2 14.1569 4.25311 14.1076C4.30621 14.0584 4.34398 13.9949 4.36188 13.9247C4.64625 12.7972 5.09375 11.7185 5.69188 10.7179C5.72911 10.6557 5.74751 10.584 5.74484 10.5116C5.74218 10.4391 5.71857 10.369 5.67688 10.3097L4.29 8.33598L7.47063 5.15536L9.44438 6.54223C9.50367 6.58393 9.57378 6.60754 9.64622 6.6102C9.71865 6.61286 9.79031 6.59446 9.8525 6.55723C10.8508 5.95991 11.9312 5.51203 13.0594 5.22786C13.2031 5.19161 13.3119 5.07473 13.3369 4.92848L13.7513 2.55348L16 2.55286H18.2488L18.6631 4.92786C18.6757 4.99917 18.7085 5.06536 18.7577 5.11846C18.807 5.17157 18.8705 5.20934 18.9406 5.22723C20.0675 5.51098 21.1463 5.95848 22.1475 6.55661C22.2097 6.59369 22.2814 6.612 22.3538 6.60934C22.4262 6.60668 22.4963 6.58316 22.5556 6.54161L24.5294 5.15473L27.71 8.33536L26.3231 10.3091C26.2814 10.3684 26.2578 10.4385 26.2552 10.5109C26.2525 10.5834 26.2709 10.655 26.3081 10.7172C26.9052 11.7157 27.3531 12.7961 27.6375 13.9241C27.6738 14.0679 27.7906 14.1766 27.9369 14.2016L30.3119 14.616V16.8647L30.3125 19.1141ZM21.3644 11.211L20.3944 11.621C20.1088 11.7416 19.9713 12.0679 20.0806 12.3554C19.3119 12.5841 18.5881 12.4122 17.885 12.246C17.1538 12.0729 16.4625 11.9091 15.82 12.2354C15.8081 12.2416 15.7963 12.2485 15.7844 12.256C15.4969 12.4441 15.2544 12.631 15.045 12.8047C14.7675 12.6885 14.425 12.7197 14.0913 12.751C13.595 12.7972 13.0419 12.8479 12.4988 12.5385C12.6281 12.2735 12.5363 11.9479 12.2788 11.7929L11.3769 11.2485C11.3121 11.2093 11.2402 11.1833 11.1653 11.172C11.0904 11.1607 11.0141 11.1644 10.9406 11.1829C10.8671 11.2008 10.7979 11.2332 10.737 11.278C10.6761 11.3228 10.6246 11.3793 10.5856 11.4441L7.8775 15.9285C7.83816 15.9932 7.8121 16.0651 7.80083 16.14C7.78956 16.2149 7.79332 16.2913 7.81188 16.3647C7.82984 16.4382 7.86217 16.5074 7.90701 16.5684C7.95185 16.6293 8.00831 16.6807 8.07313 16.7197L8.975 17.2641C9.06813 17.3204 9.17063 17.3466 9.27188 17.3466C9.46688 17.3466 9.65813 17.2472 9.76625 17.0685L9.89875 16.8485C10.2863 16.9497 10.5656 17.1254 10.7113 17.2585L10.3869 17.6279C10.1863 17.856 10.0863 18.1497 10.1063 18.4547C10.1263 18.7597 10.2625 19.0379 10.4913 19.2385C10.7075 19.4285 10.9763 19.5222 11.2438 19.5222C11.2588 19.5222 11.2731 19.5204 11.2875 19.5197C11.3238 19.7941 11.4544 20.0429 11.6638 20.226C11.88 20.416 12.1488 20.5097 12.4163 20.5097C12.4231 20.5097 12.43 20.5091 12.4363 20.5085C12.4681 20.7916 12.6 21.0491 12.815 21.2379C13.0313 21.4279 13.3 21.5216 13.5675 21.5216C13.5769 21.5216 13.5856 21.5204 13.595 21.5204C13.6269 21.7904 13.7538 22.0497 13.9731 22.2429C14.1825 22.4272 14.4469 22.526 14.7244 22.526C14.9507 22.5264 15.172 22.4594 15.36 22.3335C15.5713 22.4885 15.8169 22.5654 16.0594 22.5654C16.3763 22.5654 16.6869 22.436 16.9094 22.1829C17.0338 22.041 17.1163 21.8766 17.1588 21.7041C17.2702 21.731 17.385 21.741 17.4994 21.7335C17.8044 21.7141 18.0825 21.5772 18.2831 21.3485C18.41 21.2041 18.4938 21.0354 18.535 20.8591C18.6163 20.8772 18.6988 20.8866 18.7806 20.8866C19.0975 20.8866 19.4138 20.7554 19.6388 20.4991C19.7781 20.3404 19.8644 20.1535 19.9013 19.9597C19.955 19.9672 20.0088 19.9722 20.0625 19.9722C20.3794 19.9722 20.6956 19.841 20.9206 19.5847C21.2463 19.2141 21.2869 18.691 21.0619 18.2816C21.4825 18.0272 21.6381 17.7804 21.7675 17.5722C21.8588 17.426 21.9288 17.3147 22.1294 17.2066C22.1742 17.3095 22.2482 17.3971 22.3421 17.4586C22.436 17.5201 22.5459 17.5529 22.6581 17.5529C22.735 17.5529 22.8111 17.5374 22.8819 17.5072L23.8519 17.0972C24.1444 16.9735 24.2819 16.6347 24.1581 16.3422L22.1181 11.5166C21.9956 11.2247 21.6569 11.0872 21.3644 11.211ZM9.21375 16.5322L8.60938 16.1672L11.1375 11.9804L11.7419 12.3454L9.21375 16.5322ZM10.9863 18.6754C10.9081 18.6066 10.8619 18.5116 10.855 18.4066C10.8481 18.3016 10.8825 18.201 10.9506 18.1229L11.765 17.196C11.8017 17.1541 11.847 17.1205 11.8978 17.0976C11.9486 17.0746 12.0037 17.0628 12.0594 17.0629C12.1513 17.0629 12.2431 17.0947 12.3175 17.1597C12.4794 17.3022 12.4956 17.5504 12.3531 17.7122L11.56 18.6154L11.5388 18.6391C11.3963 18.8016 11.1481 18.8179 10.9863 18.6754ZM12.1588 19.6629C12.0806 19.5947 12.0344 19.4991 12.0275 19.3941C12.0206 19.2891 12.0544 19.1891 12.1225 19.111L12.9163 18.2079C12.9231 18.1997 12.9294 18.191 12.9363 18.1829L12.9375 18.1841C13.08 18.0222 13.3281 18.006 13.49 18.1485C13.6519 18.291 13.6681 18.5391 13.5256 18.701L13.2731 18.9885L12.7113 19.6279C12.5688 19.7897 12.3213 19.8054 12.1588 19.6629ZM13.3106 20.6747C13.2325 20.606 13.1863 20.511 13.1794 20.406C13.1725 20.301 13.2069 20.2004 13.275 20.1222L13.8369 19.4829C13.9055 19.405 14.0022 19.3576 14.1058 19.3509C14.2093 19.3442 14.3113 19.3789 14.3894 19.4472C14.4675 19.516 14.5138 19.611 14.5206 19.716C14.5275 19.821 14.4931 19.9216 14.425 19.9997L13.9569 20.5322L13.9563 20.5329L13.8969 20.601L13.8638 20.6391C13.7206 20.8016 13.4725 20.8172 13.3106 20.6747ZM14.7525 21.7747C14.6475 21.7822 14.5469 21.7479 14.4688 21.6791C14.3069 21.5366 14.2906 21.2885 14.4331 21.1266L14.4381 21.121L14.5194 21.0285C14.5562 20.9868 14.6014 20.9535 14.652 20.9307C14.7027 20.9078 14.7576 20.896 14.8131 20.896C14.905 20.896 14.9969 20.9279 15.0713 20.9935C15.2331 21.136 15.2494 21.3841 15.1069 21.546L15.0206 21.6447C14.9867 21.683 14.9456 21.7142 14.8995 21.7365C14.8535 21.7588 14.8036 21.7718 14.7525 21.7747ZM16.3469 21.6879C16.225 21.8266 16.02 21.8529 15.8519 21.7604C15.9322 21.5829 15.9659 21.3879 15.9498 21.1938C15.9337 20.9996 15.8684 20.8128 15.76 20.651L16.3113 21.1354L16.3119 21.136C16.4731 21.2785 16.4888 21.526 16.3469 21.6879ZM20.3581 19.0904C20.2156 19.2522 19.9675 19.2685 19.8056 19.126L19.5363 18.8897L19.5356 18.8891C19.5356 18.8891 19.535 18.8891 19.535 18.8885L17.6563 17.2372C17.5006 17.1004 17.2638 17.116 17.1269 17.2716C16.99 17.4272 17.0056 17.6641 17.1613 17.801L19.0413 19.4529C19.2031 19.5954 19.2188 19.8429 19.0763 20.0047C18.9338 20.1666 18.6863 20.1829 18.5238 20.0404L16.5844 18.336C16.4288 18.1991 16.1919 18.2147 16.055 18.3704C15.9181 18.526 15.9338 18.7629 16.0894 18.8997L17.6875 20.3041C17.8469 20.4466 17.8613 20.6935 17.72 20.8541C17.6861 20.8927 17.6449 20.9241 17.5988 20.9467C17.5526 20.9692 17.5025 20.9824 17.4513 20.9854C17.3463 20.9916 17.2456 20.9579 17.1675 20.8897L16.155 19.9997C16.0914 19.9438 16.0107 19.9111 15.9261 19.907C15.8415 19.9028 15.7579 19.9274 15.6891 19.9767C15.6202 20.0261 15.5701 20.0973 15.5469 20.1787C15.5237 20.2602 15.5288 20.3471 15.5613 20.4254C15.4481 20.3265 15.3163 20.251 15.1738 20.2035C15.37 19.7597 15.2669 19.221 14.8838 18.8841C14.7288 18.7479 14.5463 18.6622 14.3569 18.6241C14.4169 18.2497 14.2906 17.8535 13.985 17.5847C13.7569 17.3841 13.4706 17.2922 13.1888 17.3029C13.1538 17.0391 13.0275 16.786 12.8125 16.5966C12.3413 16.1822 11.6219 16.2279 11.2056 16.696C10.9863 16.496 10.6756 16.311 10.2994 16.1847L12.1131 13.1816C12.6044 13.4647 13.0994 13.5341 13.5306 13.5341C13.7625 13.5341 13.9763 13.5141 14.1613 13.4972C14.1838 13.4954 14.2088 13.4929 14.2338 13.4904C13.4056 14.1535 13.5156 14.886 13.605 15.4772C13.6694 15.9041 13.725 16.2722 13.4831 16.6491C13.4206 16.746 13.4063 16.8666 13.4444 16.976C13.4825 17.0854 13.5688 17.1704 13.6781 17.2072C14.1381 17.3629 14.6563 17.2554 15.1006 16.9135C15.5981 16.5304 15.8963 15.9385 15.86 15.4047C15.85 15.2535 15.9413 15.0066 16.0625 14.9354C16.0825 14.9235 16.1331 14.8935 16.2613 14.9697L20.3219 18.5379C20.3606 18.5717 20.3922 18.6129 20.415 18.659C20.4378 18.7051 20.4512 18.7553 20.4546 18.8066C20.458 18.8579 20.4512 18.9094 20.4346 18.9581C20.4181 19.0068 20.3921 19.0517 20.3581 19.0904ZM21.1325 17.176C21.0163 17.3622 20.9125 17.5272 20.53 17.7216L16.7338 14.386C16.7194 14.3735 16.7044 14.3622 16.6888 14.3522C16.225 14.0547 15.8588 14.1854 15.6819 14.2904C15.2769 14.5297 15.0863 15.0691 15.1125 15.456C15.1313 15.7379 14.9388 16.0929 14.6438 16.3204C14.5875 16.3641 14.4856 16.4329 14.36 16.4797C14.4544 16.0747 14.3963 15.6935 14.3469 15.3666C14.2638 14.8154 14.2088 14.451 14.7419 14.046C14.88 13.9416 15.0213 13.8172 15.1706 13.6866C15.445 13.446 15.7556 13.1741 16.1763 12.8972C16.5719 12.7072 17.1013 12.8322 17.7119 12.9772C18.4638 13.1554 19.3794 13.3722 20.3725 13.051L21.8375 16.516C21.4531 16.7054 21.29 16.9229 21.1325 17.176ZM22.7506 16.7497L20.8463 12.2447L21.4963 11.9697L23.4006 16.4747L22.7506 16.7497Z" fill="white"/>
</svg>
