<svg width="32" height="33" viewBox="0 0 32 33" fill="none" xmlns="http://www.w3.org/2000/svg">
<g clip-path="url(#clip0_24197_3514)">
<path d="M30.8801 5.07414C30.819 4.9465 30.7099 4.84826 30.5766 4.80094L19.5136 0.895486C19.236 0.797286 18.9313 0.943152 18.8331 1.22075L16.3202 8.33167H15.221V6.51834C15.2209 6.27342 15.1647 6.03178 15.0565 5.81204C14.9483 5.59229 14.7912 5.40032 14.5971 5.2509C14.403 5.10149 14.1773 4.99862 13.9372 4.95023C13.6971 4.90185 13.4491 4.90923 13.2123 4.97181L0.397588 8.3494V8.359C0.28464 8.38739 0.184319 8.45249 0.112378 8.54407C0.0404374 8.63566 0.000952023 8.74854 0.00012207 8.865L0.00012207 31.265C0.00012207 32.1486 0.716521 32.8649 1.60012 32.8649H16.5334C17.417 32.8649 18.1334 32.1486 18.1334 31.265V26.4256L22.4107 27.9356C22.6886 28.0334 22.9933 27.8879 23.0912 27.61L30.9029 5.48168C30.9261 5.41558 30.936 5.34556 30.9321 5.27562C30.9281 5.20569 30.9104 5.13722 30.88 5.07414H30.8801ZM13.4844 6.00034C13.5634 5.97954 13.646 5.97711 13.7261 5.99323C13.8061 6.00935 13.8814 6.0436 13.9461 6.09334C14.0108 6.1432 14.0633 6.20726 14.0993 6.28059C14.1354 6.35392 14.1542 6.43455 14.1542 6.51627V8.33167H4.64598L13.4844 6.00034ZM17.0668 31.265C17.0668 31.4064 17.0106 31.5421 16.9105 31.6421C16.8105 31.7421 16.6749 31.7983 16.5334 31.7983H1.60012C1.45867 31.7983 1.32302 31.7421 1.223 31.6421C1.12298 31.5421 1.06679 31.4064 1.06679 31.265V9.39833H16.5334C16.6749 9.39833 16.8105 9.45452 16.9105 9.55454C17.0106 9.65456 17.0668 9.79022 17.0668 9.93167V31.265ZM21.4509 11.4288L22.1334 11.1051L22.4587 11.7856L19.8673 19.1194C19.8204 19.2527 19.8282 19.3994 19.8891 19.527L20.4443 20.6884L20.2727 21.1754L19.2149 20.08C19.1576 20.0202 19.0871 19.9746 19.0091 19.9468C18.9311 19.919 18.8476 19.9098 18.7654 19.9199L18.1334 19.9999V19.2852L18.5884 19.0676C18.716 19.0066 18.8142 18.8975 18.8615 18.7642L19.9282 15.7478L21.4509 11.4288ZM22.4566 14.9887L23.5394 16.7285L23.3542 17.2527L22.0587 16.1184L22.4566 14.9887ZM18.1334 17.6218V16.1561L18.6581 16.1343L18.1334 17.6218ZM19.0402 15.0512L18.1334 15.0885V14.3785L19.4391 13.9231L19.0402 15.0512ZM22.2626 26.752L18.1334 25.2943V21.075L18.6332 21.0126L20.1069 22.537C20.1569 22.588 20.2166 22.6285 20.2826 22.6559C20.3485 22.6834 20.4193 22.6973 20.4907 22.6969C20.5287 22.6972 20.5666 22.6931 20.6037 22.6847C20.6925 22.6654 20.7749 22.6237 20.8431 22.5636C20.9112 22.5035 20.9629 22.4269 20.9931 22.3412L21.5264 20.8324C21.5735 20.699 21.5657 20.5524 21.5045 20.425L20.9467 19.265L21.6765 17.1983L23.2433 18.5718C23.3406 18.657 23.4656 18.704 23.5949 18.704C23.6405 18.704 23.6858 18.698 23.7298 18.6863C23.8141 18.6643 23.8916 18.6219 23.9558 18.563C24.0199 18.5041 24.0687 18.4304 24.0978 18.3483L24.6311 16.8395C24.6578 16.7641 24.6671 16.6836 24.6584 16.6042C24.6497 16.5247 24.6232 16.4482 24.5809 16.3803L22.9115 13.6986L23.5366 11.9286C23.56 11.8625 23.5701 11.7924 23.5663 11.7224C23.5626 11.6523 23.545 11.5837 23.5147 11.5205L22.8642 10.1601C22.834 10.0968 22.7916 10.0402 22.7395 9.99333C22.6874 9.94648 22.6266 9.91036 22.5605 9.88702C22.4945 9.86368 22.4245 9.85358 22.3545 9.85731C22.2845 9.86103 22.216 9.87851 22.1527 9.90873L20.7915 10.5595C20.7284 10.5897 20.6719 10.632 20.6252 10.6841C20.5784 10.7361 20.5424 10.7969 20.5191 10.8629L19.8933 12.6351L18.1334 13.249V9.93167C18.1328 9.65873 18.0622 9.39052 17.9282 9.15269C17.7943 8.91487 17.6016 8.71539 17.3686 8.57334L18.2402 6.10174L18.4358 5.54728L19.6626 2.08062L29.7206 5.63088L22.2626 26.752Z" fill="white"/>
<path d="M26.4703 9.00781L26.8252 8.00182L27.7398 8.32448L27.3848 9.33048L26.4703 9.00781ZM19.1552 6.42522L19.5104 5.41956L20.4247 5.74242L20.0695 6.74815L19.1552 6.42522ZM24.6414 8.36222L24.9966 7.35622L25.9109 7.67915L25.5557 8.68488L24.6414 8.36222ZM20.9841 7.07109L21.3393 6.06535L22.2533 6.38829L21.8982 7.39402L20.9841 7.07109ZM22.8127 7.71615L23.168 6.71042L24.0822 7.03335L23.727 8.03902L22.8127 7.71615ZM8.82087 11.532C5.87528 11.532 3.48755 13.9197 3.48755 16.8653C3.48755 19.8109 5.87528 22.1987 8.82087 22.1987C11.7665 22.1987 14.1542 19.8109 14.1542 16.8653C14.1511 13.9213 11.7651 11.5353 8.82087 11.532ZM12.6721 15.0419L11.9445 14.882C11.6245 14.8114 11.3044 14.7555 10.9812 14.707C10.9328 14.3842 10.8744 14.0629 10.806 13.7437L10.6458 13.0163C11.5337 13.439 12.2491 14.1542 12.6721 15.0419ZM4.55415 16.8653C4.55521 16.6473 4.57295 16.4297 4.60755 16.2143L5.92634 15.9208C6.12868 15.876 6.33234 15.8388 6.53648 15.8036C6.48491 16.5106 6.48491 17.2204 6.53648 17.9273C6.33228 17.8921 6.12868 17.8547 5.92634 17.8099L4.60755 17.5167C4.57299 17.3013 4.55516 17.0835 4.55421 16.8653H4.55415ZM7.61881 15.6638C8.41824 15.5925 9.22244 15.5925 10.0219 15.6638C10.0935 16.4632 10.0935 17.2674 10.0219 18.0669C9.22243 18.1385 8.41818 18.1385 7.61874 18.0669C7.54713 17.2674 7.5472 16.4632 7.61881 15.6638ZM11.1029 15.8036C11.3073 15.8388 11.5109 15.876 11.713 15.9208L13.032 16.2143C13.106 16.6452 13.106 17.0857 13.032 17.5167L11.713 17.8099C11.511 17.8547 11.3073 17.8921 11.1029 17.9279C11.1547 17.2207 11.1547 16.5107 11.1029 15.8036ZM9.4716 12.6521L9.76487 13.9716C9.80967 14.1737 9.8474 14.3773 9.88287 14.5817C9.17564 14.5299 8.46557 14.5299 7.75834 14.5817C7.79374 14.3773 7.83101 14.1737 7.87634 13.9716L8.16954 12.6521C8.60048 12.5789 9.04067 12.5789 9.4716 12.6521ZM6.99694 13.0125L6.83674 13.7401C6.76641 14.0601 6.71041 14.3802 6.66201 14.7034C6.33916 14.7516 6.0179 14.8099 5.69868 14.8781L4.97108 15.0383C5.39438 14.1513 6.10957 13.4368 6.99688 13.0143L6.99694 13.0125ZM4.97001 18.6872L5.69761 18.8473C6.01761 18.9177 6.33741 18.9737 6.66094 19.0221C6.70916 19.3449 6.76741 19.6662 6.83561 19.9854L6.99581 20.7127C6.10805 20.2905 5.39243 19.5759 4.96895 18.6887L4.97001 18.6872ZM8.17001 21.0755L7.87674 19.7559C7.83141 19.5544 7.79421 19.3502 7.75874 19.1463C8.11194 19.1721 8.46661 19.1895 8.82127 19.1895C9.17594 19.1895 9.5296 19.1721 9.88327 19.1463C9.84787 19.3502 9.81007 19.5543 9.76527 19.7559L9.47207 21.0755C9.04113 21.1486 8.60094 21.1486 8.17001 21.0755ZM10.6447 20.7151L10.8049 19.9875C10.8757 19.6675 10.9312 19.3476 10.9802 19.0241C11.303 18.9759 11.6242 18.9176 11.9434 18.8495L12.6707 18.6893C12.2481 19.5777 11.5325 20.2936 10.6442 20.7166L10.6447 20.7151ZM4.55421 26.4653H13.0875V27.532H4.55421V26.4653ZM5.62088 28.5986H12.0209V29.6653H5.62088V28.5986ZM8.28754 24.332H9.3542V25.3986H8.28754V24.332ZM6.15421 24.332H7.22088V25.3986H6.15421V24.332ZM10.4209 24.332H11.4875V25.3986H10.4209V24.332Z" fill="white"/>
</g>
<defs>
<clipPath id="clip0_24197_3514">
<rect width="32" height="32" fill="white" transform="translate(0 0.865356)"/>
</clipPath>
</defs>
</svg>
