<svg width="256" height="190" viewBox="0 0 256 190" fill="none" xmlns="http://www.w3.org/2000/svg">
<path d="M128.853 165.644C130.403 165.562 131.691 166.056 132.98 166.815C143.727 173.151 155.242 177.343 167.58 179.386C182.193 181.805 196.786 183.038 211.557 180.685C219.309 179.452 226.979 177.96 234.485 175.673C235.338 175.413 236.335 174.7 237.097 175.489C238.074 176.498 236.975 177.44 236.581 178.342C235.574 180.644 234.341 182.854 233.472 185.208C232.818 186.98 233.687 189.186 234.955 189.756C236.688 190.54 237.655 189.272 238.672 188.238C239.137 187.77 239.598 187.286 240.017 186.776C244.736 181.056 249.425 175.311 254.175 169.612C255.949 167.477 256.583 165.185 255.387 162.628C254.216 160.122 251.956 159.557 249.405 159.562C240.508 159.567 231.611 159.527 222.709 159.527C221.518 159.527 220.311 159.598 219.145 159.812C217.928 160.036 216.814 160.611 216.645 162.012C216.471 163.448 217.473 164.182 218.649 164.615C219.764 165.027 220.955 165.236 222.08 165.628C223.282 166.041 224.698 165.904 225.756 166.948C224.944 168.155 223.681 168.078 222.576 168.343C207.554 171.939 192.368 172.55 177.08 170.574C167.58 169.347 158.177 167.651 149.352 163.693C148.585 163.347 147.429 163.342 147.491 161.854C151.821 159.97 156.07 157.82 160.166 155.36C183.65 141.246 186.652 111.165 171.783 92.9454C168.669 89.1304 165.473 85.3664 161.567 82.3969C151.371 74.6549 139.76 71.2526 127.1 73.4682C103.083 77.6804 93.5731 103.356 96.3904 119.35C98.5123 131.421 104.566 141.603 112.768 150.593C114.077 152.029 115.749 153.155 116.848 155.049C115.743 155.671 115.074 155.523 114.429 155.437C104.745 154.122 95.4394 151.494 86.7318 147.048C67.164 137.049 50.7561 123.129 37.0531 106.117C28.0285 94.9165 21.2332 82.2696 15.5168 69.1184C8.08745 51.9943 4.07367 34.1725 5.45932 15.3879C5.79167 10.8548 6.45126 6.41844 9.76454 2.90398C10.3986 2.23165 11.3087 1.53385 10.4957 0.571197C9.62137 -0.462767 8.55783 0.112789 7.63237 0.688345C6.59442 1.33012 5.86325 2.2724 5.16277 3.24524C3.51125 5.54237 2.46815 8.10945 1.88016 10.8497C-0.829774 23.4814 -0.558778 36.1538 2.36079 48.653C8.86975 76.4784 21.2434 101.462 40.5095 122.722C54.2483 137.89 70.0836 150.491 89.2576 158.375C101.918 163.586 115.074 166.387 128.853 165.644ZM131.236 153.297C121.143 145.662 112.808 136.688 107.767 124.856C102.332 112.102 106.407 95.5991 117.405 87.2968C123.566 82.6465 130.602 81.1338 138.098 82.2645C146.289 83.5022 153.59 86.7569 159.353 92.9607C163.893 97.8504 168.004 102.985 169.937 109.524C170.77 112.346 171.072 115.219 170.96 117.679C171.062 129.862 166.388 139.122 156.648 145.785C150.794 149.788 144.499 152.793 137.586 154.494C135.255 155.07 133.235 154.805 131.236 153.297Z" fill="#20134D"/>
</svg>
