<svg width="524" height="52" viewBox="0 0 524 52" fill="none" xmlns="http://www.w3.org/2000/svg">
<path opacity="0.827996" fill-rule="evenodd" clip-rule="evenodd" d="M523.368 29.7417C522.936 31.2154 517.049 34.1759 516.585 33.1901C516.335 32.6593 515.566 32.5114 514.854 32.8648C513.447 33.5122 507.446 33.5038 501.867 32.8557C499.967 32.6059 494.515 32.4167 489.679 32.3922C484.843 32.3678 477.538 32.2658 473.276 32.166C469.112 32.1294 464.708 32.1135 463.606 32.2138C462.123 32.3223 461.91 32.0611 462.708 31.1226C463.33 30.3861 462.882 30.533 461.749 31.4293C460.589 32.3172 459.486 32.611 459.298 32.0676C459.059 31.6042 458.299 31.4269 457.56 31.7716C456.846 32.125 453.318 32.2908 449.646 32.1537C445.993 32.0541 441.856 32.0261 440.373 32.1345C438.953 32.2304 434.26 32.3155 430.06 32.2999C414.839 32.2892 401.554 32.5072 390.563 33.0049C384.423 33.2743 378.751 33.4345 378.097 33.3879C377.392 33.3242 376.068 33.3865 375.23 33.4742C371.492 33.9602 348.294 35.1482 345.999 34.9656C344.587 34.8383 342.954 34.9635 342.32 35.2452C339.523 36.3845 329.093 36.5457 327.552 35.475C325.729 34.2818 324.949 30.811 326.594 31.3344C327.151 31.5118 327.44 31.217 327.268 30.5178C326.824 28.4751 349.889 25.5687 352.026 27.3768C352.674 27.9375 353.079 27.9377 352.951 27.3817C352.689 26.2023 392.377 23.3666 393.266 24.4872C393.694 25.0099 394.268 25.0313 394.749 24.5726C395.513 23.8489 421.781 22.6711 437.53 22.6569C440.919 22.672 446.927 22.4572 450.905 22.2411C454.892 21.9952 459.092 22.1079 460.286 22.4876C461.505 22.8759 462.871 22.7632 463.397 22.2539C463.924 21.7448 464.851 21.7497 465.508 22.2807C466.155 22.8414 466.816 22.7618 467.006 22.1132C467.178 21.5239 467.833 21.4738 468.507 22.0428C469.154 22.6032 470.01 22.7471 470.413 22.36C470.816 21.9728 473.755 21.8443 476.994 22.0699C480.215 22.2574 484.733 22.3742 487.081 22.2833C496.238 22.0076 504.013 22.5816 504.814 23.6096C505.357 24.33 505.522 24.1577 505.26 23.0751C504.998 21.8957 505.289 21.7949 506.282 22.562C507.025 23.1858 507.767 23.3253 507.897 22.8831C508.036 22.4115 509.63 22.0169 511.501 21.9677C513.362 21.9479 516.727 22.5356 519.07 23.3458C522.81 24.633 523.2 25.0796 522.551 27.0965C522.161 28.3258 522.246 29.223 522.73 29.0548C523.294 28.9119 523.534 29.1817 523.368 29.7417ZM400.228 6.5845C403.315 6.09898 404.231 6.39041 403.093 7.46183C402.611 7.99204 401.254 8.10592 400.105 7.70613C398.132 7.00941 398.149 6.94695 400.228 6.5845ZM414.004 1.33007C414.488 1.48437 413.865 2.00294 412.521 2.56558C411.224 3.07438 410.1 3.19437 409.92 2.79643C409.584 2.0403 412.673 0.941314 414.004 1.33007ZM439.103 4.94078C439.613 5.10364 440.563 5.98587 441.168 6.8277C441.748 7.66096 441.844 8.23767 441.305 8.06625C440.821 7.91197 439.837 7.05239 439.23 6.21055C438.65 5.3773 438.59 4.77792 439.103 4.94078ZM449.763 5.71125C450.793 6.41469 452.005 6.5959 452.44 6.1196C452.937 5.62918 453.649 5.41184 454.214 5.59184C454.727 5.75467 454.281 6.46672 453.288 7.1408C451.015 8.56796 448.607 8.04083 448.215 5.96961C447.969 4.90125 448.437 4.81125 449.763 5.71125ZM375.252 8.8651C375.815 9.04368 375.873 9.54268 375.38 10.0266C374.921 10.4898 375.149 11.1069 375.924 11.3535C377.822 11.9572 379.219 10.4799 377.911 9.26274C377.356 8.76566 378.413 8.84591 380.23 9.42413C383.997 10.6231 386.058 10.863 388.049 10.2475C388.847 10.0206 389.79 10.289 390.303 10.9325C390.887 11.6309 391.062 11.5269 390.858 10.5327C390.386 8.46014 394.552 6.90315 395.645 8.7564C396.232 9.744 398.008 9.86103 401.731 9.2199C407.199 8.2053 409.616 8.42998 410.129 10.0669C410.503 11.2756 413.928 11.0523 414.297 9.79239C414.452 9.26501 414.217 8.77359 413.657 8.59501C413.175 8.44195 413.086 7.45243 413.502 6.33528C414.04 4.90435 414.49 4.75971 415.113 5.82289C415.583 6.61295 415.76 7.69508 415.473 8.27633C414.235 10.6052 416.889 10.6172 418.793 8.30817L420.856 5.76093L421.951 8.80027C422.543 10.4627 423.181 11.2744 423.362 10.6592C423.551 10.0146 424.444 9.75459 425.408 10.0607C428.051 10.9026 428.938 9.87138 427.822 7.20911C426.55 4.17733 427.538 4.29916 429.003 7.36115C430.199 9.75974 434.547 11.4643 437.557 10.6607C438.664 10.3723 439.105 9.96777 438.498 9.7429C437.893 9.51801 437.405 8.59375 437.36 7.65053C437.315 6.51453 437.685 6.34438 438.608 7.08618C439.582 7.94143 439.9 7.75425 439.826 6.41693C439.781 5.37732 440.306 4.58339 441.121 4.49071C442.017 4.42352 442.203 5.18713 441.647 6.58028C440.294 9.99413 440.646 11.58 442.702 11.145C443.731 10.9276 446.499 10.9443 448.775 11.2522C451.087 11.5393 453.633 11.3245 454.426 10.712C455.174 10.1496 456.418 10.0966 457.009 10.5729C457.598 11.0491 458.655 11.033 459.209 10.5367C459.939 9.84013 460.349 9.93839 460.544 10.8655C460.757 11.7341 461.717 11.9438 463.738 11.5296C465.828 11.0739 466.78 11.3129 467.288 12.3714C467.839 13.4762 468.115 13.5319 468.39 12.5943C468.59 11.9204 469.448 11.5849 470.301 11.857C471.157 12.1291 474.976 12.3518 478.705 12.3854C482.415 12.3813 487.683 12.7447 490.226 13.1376C492.902 13.5731 494.952 13.3602 495.035 12.6816C495.106 11.936 496.838 11.9103 499.445 12.5801C504.561 13.8565 510.331 14.6035 511.241 14.0921C511.595 13.8841 510.995 13.4372 509.953 13.1055C508.938 12.7824 507.628 11.3724 507.039 9.99926C506.185 7.93334 506.279 7.51466 507.628 7.39921C508.692 7.35376 508.837 7.75257 508.145 8.814C507.33 9.9 507.467 10.1353 508.546 9.83845C509.449 9.54916 509.691 9.7221 509.153 10.2561C506.725 12.5586 519.217 15.4778 522.732 13.4569C524.26 12.5334 524.351 12.0183 523.305 9.31443C522.495 7.10202 522.02 6.63045 521.657 7.76462C521.269 8.89027 521.039 8.88085 520.788 7.74391C520.539 6.89618 520.082 6.36599 519.659 6.61554C519.251 6.8065 517.412 6.70176 515.607 6.38344C513.855 6.08212 511.163 5.70526 509.803 5.5608C508.434 5.44561 505.572 5.14345 503.574 4.89129C501.573 4.63913 498.56 4.44943 496.99 4.42974L494.078 4.39978L496.128 6.26995C497.445 7.45782 497.617 7.96153 496.594 7.6677C495.731 7.42489 494.681 6.32206 494.282 5.29761C493.816 3.99623 493.129 3.55304 492.253 3.94723C491.511 4.28755 488.749 4.24149 485.976 3.83913C483.201 3.43676 479.899 3.44275 478.484 3.88897C477.119 4.3522 475.247 4.36465 474.337 3.97914C471.208 2.59863 470.126 2.70269 470.48 4.28855C470.711 5.38768 470.534 5.29887 469.649 3.92853C468.829 2.54592 468.312 2.31727 467.555 3.00537C466.975 3.58949 466.15 3.6151 465.559 3.13882C464.334 2.13995 461.386 3.22047 459.968 5.1713C459.222 6.21573 459.088 6.0768 459.437 4.58635C459.78 3.22159 459.392 2.64982 458.214 2.78698C457.255 2.86646 455.71 2.66246 454.666 2.33082C453.624 1.99918 452.944 2.23079 453.056 2.84321C453.508 4.68519 450.802 4.94533 450.35 3.10337C450.056 2.01653 449.575 1.67067 448.896 2.19147C448.322 2.64992 446.627 2.7512 444.947 2.40827C443.292 2.07386 441.329 1.89731 440.424 1.99379C439.582 2.07799 438.079 1.82389 437.257 1.4346C435.181 0.452818 433.678 2.18534 434.562 4.54897C435.055 5.95522 434.858 6.72551 433.825 7.35789C432.739 7.97324 432.506 7.77101 432.876 6.51115C434.105 2.3214 427.674 1.94018 425.298 6.05348C424.068 8.25663 423.705 8.39749 422.811 6.86367C422.251 5.78819 422.157 4.41307 422.646 3.54353C423.242 2.51521 422.852 1.84705 421.331 1.36235C418.766 0.54602 417.675 2.66601 419.908 4.01729C420.925 4.62962 420.511 4.84987 418.582 4.65252C416.486 4.43345 416.002 4.08759 416.652 3.17266C417.194 2.41653 416.842 1.82399 415.659 1.57553C414.707 1.33651 413.433 1.69954 412.949 2.34698C412.38 3.19101 411.224 3.04746 409.28 1.91541C406.95 0.597208 406.489 0.578357 406.811 1.96289C407.127 3.37675 406.966 3.32572 405.967 1.75789C404.957 0.122959 404.531 0.179702 402.934 2.13811C401.888 3.40749 400.338 4.51529 399.467 4.59097C398.19 4.66481 398.179 4.5013 399.44 3.58917C400.728 2.68553 400.387 2.35288 397.13 1.41186C395.029 0.807189 393.154 0.626843 393.024 1.06634C392.894 1.50582 392.184 1.34332 391.432 0.719628C390.511 -0.0221955 390.166 0.060064 390.352 0.920089C390.758 2.61936 383.762 2.66724 381.155 1.00412C380.127 0.324682 371.395 -0.083738 361.64 0.0145112C306.949 0.642425 236.619 5.39057 168.596 13.0201C156.056 14.4427 142.539 15.8106 138.484 16.0898C127.58 16.8157 105.795 19.7806 105.554 20.601C105.443 20.9819 104.547 21.1454 103.586 20.9357C101.78 20.521 75.4343 24.6931 72.7018 25.8418C71.8705 26.186 68.813 26.7504 65.8336 27.1476C62.8363 27.507 48.0292 30.4826 32.7896 33.7372C3.29456 40.0788 -0.146103 41.4503 0.00455066 47.105C0.0990683 52.4532 4.27045 53.2686 16.13 50.2836C21.7721 48.8759 34.8853 46.098 45.4132 44.0668C55.9412 42.0359 64.4175 39.9283 64.2795 39.4038C64.1586 38.8208 64.8075 38.8991 65.7633 39.5237C66.6924 40.1399 69.3564 40.2192 71.6775 39.6764C73.9898 39.1629 78.1467 38.4357 80.957 38.0168C90.9311 36.5783 95.3553 35.9363 104.016 34.5925C129.274 30.7464 192.94 23.5245 239.562 19.2389C277.119 15.7839 299.123 14.3623 338.118 12.7747C360.854 11.8426 373.586 10.8651 373.853 9.95681C374.068 9.22433 374.746 8.70355 375.252 8.8651Z" fill="#7651A6"/>
</svg>
