<svg width="44" height="44" viewBox="0 0 44 44" fill="none" xmlns="http://www.w3.org/2000/svg">
<g clip-path="url(#clip0_24207_2053)">
<path d="M37.7143 0H6.28572C2.81421 0 0 2.81421 0 6.28572V37.7143C0 41.1858 2.81421 44 6.28572 44H37.7143C41.1858 44 44 41.1858 44 37.7143V6.28572C44 2.81421 41.1858 0 37.7143 0Z" fill="#7651A6" fill-opacity="0.23"/>
<path fill-rule="evenodd" clip-rule="evenodd" d="M10.9346 12.8334C10.9346 11.7847 11.7847 10.9346 12.8334 10.9346H31.1667C32.2154 10.9346 33.0655 11.7847 33.0655 12.8334V15.4524C33.0655 16.5011 32.2154 17.3512 31.1667 17.3512H12.8334C11.7847 17.3512 10.9346 16.5011 10.9346 15.4524V12.8334ZM12.8334 12.1131C12.4356 12.1131 12.1131 12.4356 12.1131 12.8334V15.4524C12.1131 15.8502 12.4356 16.1727 12.8334 16.1727H31.1667C31.5645 16.1727 31.887 15.8502 31.887 15.4524V12.8334C31.887 12.4356 31.5645 12.1131 31.1667 12.1131H12.8334Z" fill="#7651A6"/>
<path fill-rule="evenodd" clip-rule="evenodd" d="M10.9346 23.3095C10.9346 22.2608 11.7847 21.4106 12.8334 21.4106H18.0715C19.1202 21.4106 19.9703 22.2608 19.9703 23.3095V31.1666C19.9703 32.2153 19.1202 33.0654 18.0715 33.0654H12.8334C11.7847 33.0654 10.9346 32.2153 10.9346 31.1666V23.3095ZM12.8334 22.5892C12.4356 22.5892 12.1131 22.9117 12.1131 23.3095V31.1666C12.1131 31.5644 12.4356 31.8868 12.8334 31.8868H18.0715C18.4693 31.8868 18.7917 31.5644 18.7917 31.1666V23.3095C18.7917 22.9117 18.4693 22.5892 18.0715 22.5892H12.8334Z" fill="#7651A6"/>
<path fill-rule="evenodd" clip-rule="evenodd" d="M24.0303 21.9999C24.0303 21.6745 24.2941 21.4106 24.6196 21.4106H32.4767C32.8022 21.4106 33.066 21.6745 33.066 21.9999C33.066 22.3254 32.8022 22.5892 32.4767 22.5892H24.6196C24.2941 22.5892 24.0303 22.3254 24.0303 21.9999Z" fill="#7651A6"/>
<path fill-rule="evenodd" clip-rule="evenodd" d="M24.0303 27.2382C24.0303 26.9128 24.2941 26.6489 24.6196 26.6489H32.4767C32.8022 26.6489 33.066 26.9128 33.066 27.2382C33.066 27.5637 32.8022 27.8275 32.4767 27.8275H24.6196C24.2941 27.8275 24.0303 27.5637 24.0303 27.2382Z" fill="#7651A6"/>
<path fill-rule="evenodd" clip-rule="evenodd" d="M24.0303 32.4759C24.0303 32.1505 24.2941 31.8867 24.6196 31.8867H32.4767C32.8022 31.8867 33.066 32.1505 33.066 32.4759C33.066 32.8014 32.8022 33.0652 32.4767 33.0652H24.6196C24.2941 33.0652 24.0303 32.8014 24.0303 32.4759Z" fill="#7651A6"/>
</g>
<defs>
<clipPath id="clip0_24207_2053">
<rect width="44" height="44" fill="white"/>
</clipPath>
</defs>
</svg>
