<svg width="44" height="44" viewBox="0 0 44 44" fill="none" xmlns="http://www.w3.org/2000/svg">
<g clip-path="url(#clip0_24207_2081)">
<path d="M37.7143 0H6.28572C2.81421 0 0 2.81421 0 6.28572V37.7143C0 41.1858 2.81421 44 6.28572 44H37.7143C41.1858 44 44 41.1858 44 37.7143V6.28572C44 2.81421 41.1858 0 37.7143 0Z" fill="#7651A6" fill-opacity="0.23"/>
<path fill-rule="evenodd" clip-rule="evenodd" d="M15.2851 22.6699C15.4928 22.6699 15.6824 22.7878 15.7743 22.9739L17.3329 26.1316L20.8186 26.6411C21.024 26.6711 21.1945 26.8151 21.2585 27.0126C21.3226 27.21 21.269 27.4267 21.1203 27.5716L18.5985 30.0277L19.1936 33.4977C19.2287 33.7023 19.1446 33.9092 18.9766 34.0312C18.8086 34.1532 18.5859 34.1693 18.4022 34.0727L15.2851 32.4335L12.1681 34.0727C11.9844 34.1693 11.7617 34.1532 11.5937 34.0312C11.4257 33.9092 11.3415 33.7023 11.3766 33.4977L11.9718 30.0277L9.45004 27.5716C9.30134 27.4267 9.24774 27.21 9.31176 27.0126C9.37579 26.8151 9.54634 26.6711 9.75174 26.6411L13.2374 26.1316L14.796 22.9739C14.8879 22.7878 15.0775 22.6699 15.2851 22.6699ZM15.2851 24.4477L14.0888 26.8713C14.0094 27.0322 13.856 27.1437 13.6786 27.1696L11.0025 27.5608L12.9385 29.4464C13.0671 29.5717 13.1258 29.7524 13.0955 29.9294L12.6387 32.5926L15.0313 31.3344C15.1902 31.2508 15.3801 31.2508 15.539 31.3344L17.9316 32.5926L17.4748 29.9294C17.4444 29.7524 17.5032 29.5717 17.6318 29.4464L19.5678 27.5608L16.8917 27.1696C16.7142 27.1437 16.5609 27.0322 16.4815 26.8713L15.2851 24.4477Z" fill="#7651A6"/>
<path fill-rule="evenodd" clip-rule="evenodd" d="M30.2851 22.6699C30.4928 22.6699 30.6824 22.7878 30.7743 22.9739L32.3329 26.1316L35.8186 26.6411C36.024 26.6711 36.1945 26.8151 36.2585 27.0126C36.3226 27.21 36.269 27.4267 36.1203 27.5716L33.5985 30.0277L34.1936 33.4977C34.2287 33.7023 34.1446 33.9092 33.9766 34.0312C33.8086 34.1532 33.5859 34.1693 33.4022 34.0727L30.2851 32.4335L27.1681 34.0727C26.9844 34.1693 26.7617 34.1532 26.5937 34.0312C26.4257 33.9092 26.3415 33.7023 26.3766 33.4977L26.9718 30.0277L24.45 27.5716C24.3013 27.4267 24.2477 27.21 24.3118 27.0126C24.3758 26.8151 24.5463 26.6711 24.7517 26.6411L28.2374 26.1316L29.796 22.9739C29.8879 22.7878 30.0775 22.6699 30.2851 22.6699ZM30.2851 24.4477L29.0888 26.8713C29.0094 27.0322 28.856 27.1437 28.6786 27.1696L26.0025 27.5608L27.9385 29.4464C28.0671 29.5717 28.1258 29.7524 28.0955 29.9294L27.6387 32.5926L30.0313 31.3344C30.1902 31.2508 30.3801 31.2508 30.539 31.3344L32.9316 32.5926L32.4748 29.9294C32.4444 29.7524 32.5032 29.5717 32.6318 29.4464L34.5678 27.5608L31.8917 27.1696C31.7142 27.1437 31.5609 27.0322 31.4815 26.8713L30.2851 24.4477Z" fill="#7651A6"/>
<path fill-rule="evenodd" clip-rule="evenodd" d="M22.2851 9.71436C22.4928 9.71436 22.6824 9.83221 22.7743 10.0184L24.3329 13.1761L27.8186 13.6855C28.024 13.7156 28.1945 13.8596 28.2585 14.057C28.3226 14.2545 28.269 14.4712 28.1203 14.616L25.5985 17.0722L26.1936 20.5421C26.2287 20.7468 26.1446 20.9536 25.9766 21.0756C25.8086 21.1977 25.5859 21.2137 25.4022 21.1171L22.2851 19.4779L19.1681 21.1171C18.9844 21.2137 18.7617 21.1977 18.5937 21.0756C18.4257 20.9536 18.3415 20.7468 18.3766 20.5421L18.9718 17.0722L16.45 14.616C16.3013 14.4712 16.2477 14.2545 16.3118 14.057C16.3758 13.8596 16.5463 13.7156 16.7517 13.6855L20.2374 13.1761L21.796 10.0184C21.8879 9.83221 22.0775 9.71436 22.2851 9.71436ZM22.2851 11.4921L21.0888 13.9158C21.0094 14.0766 20.856 14.1881 20.6786 14.2141L18.0025 14.6052L19.9385 16.4909C20.0671 16.6162 20.1258 16.7968 20.0955 16.9738L19.6387 19.6371L22.0313 18.3788C22.1902 18.2953 22.3801 18.2953 22.539 18.3788L24.9316 19.6371L24.4748 16.9738C24.4444 16.7968 24.5032 16.6162 24.6318 16.4909L26.5678 14.6052L23.8917 14.2141C23.7142 14.1881 23.5609 14.0766 23.4815 13.9158L22.2851 11.4921Z" fill="#7651A6"/>
</g>
<defs>
<clipPath id="clip0_24207_2081">
<rect width="44" height="44" fill="white"/>
</clipPath>
</defs>
</svg>
