<svg width="44" height="44" viewBox="0 0 44 44" fill="none" xmlns="http://www.w3.org/2000/svg">
<g clip-path="url(#clip0_24207_2063)">
<path d="M37.7143 0H6.28572C2.81421 0 0 2.81421 0 6.28572V37.7143C0 41.1858 2.81421 44 6.28572 44H37.7143C41.1858 44 44 41.1858 44 37.7143V6.28572C44 2.81421 41.1858 0 37.7143 0Z" fill="#7651A6" fill-opacity="0.23"/>
<path fill-rule="evenodd" clip-rule="evenodd" d="M22 9.494C15.0931 9.494 9.494 15.0931 9.494 22C9.494 28.9068 15.0931 34.5059 22 34.5059C28.9068 34.5059 34.5059 28.9068 34.5059 22C34.5059 15.0931 28.9068 9.494 22 9.494ZM8.31543 22C8.31543 14.4422 14.4422 8.31543 22 8.31543C29.5577 8.31543 35.6845 14.4422 35.6845 22C35.6845 29.5577 29.5577 35.6845 22 35.6845C14.4422 35.6845 8.31543 29.5577 8.31543 22Z" fill="#7651A6"/>
<path fill-rule="evenodd" clip-rule="evenodd" d="M21.9995 13.5537C22.325 13.5537 22.5888 13.8175 22.5888 14.143V21.6359L27.5012 24.0921C27.7923 24.2376 27.9102 24.5916 27.7647 24.8827C27.6192 25.1738 27.2652 25.2918 26.9741 25.1462L21.736 22.5272C21.5364 22.4273 21.4102 22.2233 21.4102 22.0001V14.143C21.4102 13.8175 21.6741 13.5537 21.9995 13.5537Z" fill="#7651A6"/>
</g>
<defs>
<clipPath id="clip0_24207_2063">
<rect width="44" height="44" fill="white"/>
</clipPath>
</defs>
</svg>
