<svg width="44" height="44" viewBox="0 0 44 44" fill="none" xmlns="http://www.w3.org/2000/svg">
<g clip-path="url(#clip0_24207_2067)">
<path d="M37.7143 0H6.28572C2.81421 0 0 2.81421 0 6.28572V37.7143C0 41.1858 2.81421 44 6.28572 44H37.7143C41.1858 44 44 41.1858 44 37.7143V6.28572C44 2.81421 41.1858 0 37.7143 0Z" fill="#7651A6" fill-opacity="0.23"/>
<path fill-rule="evenodd" clip-rule="evenodd" d="M16.1079 10.8345C16.6404 10.8345 17.0721 11.2662 17.0721 11.7988V11.8119C17.0721 12.3444 16.6404 12.7761 16.1079 12.7761C15.5753 12.7761 15.1436 12.3444 15.1436 11.8119V11.7988C15.1436 11.2662 15.5753 10.8345 16.1079 10.8345Z" fill="#7651A6"/>
<path fill-rule="evenodd" clip-rule="evenodd" d="M11.7993 15.1426C12.3318 15.1426 12.7635 15.5743 12.7635 16.1069V16.12C12.7635 16.6525 12.3318 17.0842 11.7993 17.0842C11.2667 17.0842 10.835 16.6525 10.835 16.12V16.1069C10.835 15.5743 11.2667 15.1426 11.7993 15.1426Z" fill="#7651A6"/>
<path fill-rule="evenodd" clip-rule="evenodd" d="M10.2143 21.0352C10.7468 21.0352 11.1786 21.4669 11.1786 21.9995V22.0126C11.1786 22.5451 10.7468 22.9769 10.2143 22.9769C9.68173 22.9769 9.25 22.5451 9.25 22.0126V21.9995C9.25 21.4669 9.68173 21.0352 10.2143 21.0352Z" fill="#7651A6"/>
<path fill-rule="evenodd" clip-rule="evenodd" d="M11.7993 26.9282C12.3318 26.9282 12.7635 27.3599 12.7635 27.8925V27.9056C12.7635 28.4382 12.3318 28.8699 11.7993 28.8699C11.2667 28.8699 10.835 28.4382 10.835 27.9056V27.8925C10.835 27.3599 11.2667 26.9282 11.7993 26.9282Z" fill="#7651A6"/>
<path fill-rule="evenodd" clip-rule="evenodd" d="M16.1079 31.2368C16.6404 31.2368 17.0721 31.6685 17.0721 32.2011V32.2142C17.0721 32.7468 16.6404 33.1785 16.1079 33.1785C15.5753 33.1785 15.1436 32.7468 15.1436 32.2142V32.2011C15.1436 31.6685 15.5753 31.2368 16.1079 31.2368Z" fill="#7651A6"/>
<path fill-rule="evenodd" clip-rule="evenodd" d="M21.9995 32.8213C22.5321 32.8213 22.9638 33.253 22.9638 33.7856V33.7987C22.9638 34.3312 22.5321 34.763 21.9995 34.763C21.467 34.763 21.0352 34.3312 21.0352 33.7987V33.7856C21.0352 33.253 21.467 32.8213 21.9995 32.8213Z" fill="#7651A6"/>
<path fill-rule="evenodd" clip-rule="evenodd" d="M27.893 31.2368C28.4256 31.2368 28.8573 31.6685 28.8573 32.2011V32.2142C28.8573 32.7468 28.4256 33.1785 27.893 33.1785C27.3604 33.1785 26.9287 32.7468 26.9287 32.2142V32.2011C26.9287 31.6685 27.3604 31.2368 27.893 31.2368Z" fill="#7651A6"/>
<path fill-rule="evenodd" clip-rule="evenodd" d="M32.2006 26.9282C32.7332 26.9282 33.1649 27.3599 33.1649 27.8925V27.9056C33.1649 28.4382 32.7332 28.8699 32.2006 28.8699C31.668 28.8699 31.2363 28.4382 31.2363 27.9056V27.8925C31.2363 27.3599 31.668 26.9282 32.2006 26.9282Z" fill="#7651A6"/>
<path fill-rule="evenodd" clip-rule="evenodd" d="M33.7856 21.0352C34.3181 21.0352 34.7499 21.4669 34.7499 21.9995V22.0126C34.7499 22.5451 34.3181 22.9769 33.7856 22.9769C33.253 22.9769 32.8213 22.5451 32.8213 22.0126V21.9995C32.8213 21.4669 33.253 21.0352 33.7856 21.0352Z" fill="#7651A6"/>
<path fill-rule="evenodd" clip-rule="evenodd" d="M32.2006 15.1426C32.7332 15.1426 33.1649 15.5743 33.1649 16.1069V16.12C33.1649 16.6525 32.7332 17.0842 32.2006 17.0842C31.668 17.0842 31.2363 16.6525 31.2363 16.12V16.1069C31.2363 15.5743 31.668 15.1426 32.2006 15.1426Z" fill="#7651A6"/>
<path fill-rule="evenodd" clip-rule="evenodd" d="M27.893 10.8345C28.4256 10.8345 28.8573 11.2662 28.8573 11.7988V11.8119C28.8573 12.3444 28.4256 12.7761 27.893 12.7761C27.3604 12.7761 26.9287 12.3444 26.9287 11.8119V11.7988C26.9287 11.2662 27.3604 10.8345 27.893 10.8345Z" fill="#7651A6"/>
<path fill-rule="evenodd" clip-rule="evenodd" d="M21.9995 9.25C22.5321 9.25 22.9638 9.68172 22.9638 10.2142V10.2273C22.9638 10.7599 22.5321 11.1916 21.9995 11.1916C21.467 11.1916 21.0352 10.7599 21.0352 10.2273V10.2142C21.0352 9.68172 21.467 9.25 21.9995 9.25Z" fill="#7651A6"/>
</g>
<defs>
<clipPath id="clip0_24207_2067">
<rect width="44" height="44" fill="white"/>
</clipPath>
</defs>
</svg>
