<svg width="44" height="44" viewBox="0 0 44 44" fill="none" xmlns="http://www.w3.org/2000/svg">
<rect width="44" height="44" fill="#7651A6" fill-opacity="0.23"/>
<path fill-rule="evenodd" clip-rule="evenodd" d="M21.0648 11.1786C20.667 11.1786 20.3446 11.501 20.3446 11.8988V19.756C20.3446 20.1537 20.667 20.4762 21.0648 20.4762H30.2315C30.3878 20.4762 30.5377 20.5383 30.6482 20.6488L33.5708 23.5714V11.8988C33.5708 11.501 33.2483 11.1786 32.8505 11.1786H21.0648ZM34.7493 24.994V11.8988C34.7493 10.8501 33.8992 10 32.8505 10H21.0648C20.0161 10 19.166 10.8501 19.166 11.8988V19.756C19.166 20.8046 20.0161 21.6548 21.0648 21.6548H29.9874L33.743 25.4104L33.7447 25.4121C33.7987 25.4657 33.8631 25.509 33.9345 25.5386" fill="#7651A6"/>
<path fill-rule="evenodd" clip-rule="evenodd" d="M11.8988 20.3451C11.501 20.3451 11.1786 20.6676 11.1786 21.0654V32.7379L14.1012 29.8153C14.2117 29.7048 14.3616 29.6427 14.5179 29.6427H23.6845C24.0823 29.6427 24.4048 29.3203 24.4048 28.9225V26.3035C24.4048 25.978 24.6686 25.7142 24.994 25.7142C25.3195 25.7142 25.5833 25.978 25.5833 26.3035V28.9225C25.5833 29.9712 24.7332 30.8213 23.6845 30.8213H14.7619L11.006 34.5773C10.8374 34.7458 10.584 34.7962 10.3638 34.705C10.1436 34.6138 10 34.3989 10 34.1606V21.0654C10 20.0167 10.8501 19.1665 11.8988 19.1665H14.5179C14.8433 19.1665 15.1071 19.4304 15.1071 19.7558C15.1071 20.0813 14.8433 20.3451 14.5179 20.3451H11.8988Z" fill="#7651A6"/>
</svg>
