<svg width="44" height="44" viewBox="0 0 44 44" fill="none" xmlns="http://www.w3.org/2000/svg">
<path d="M37.7143 0H6.28572C2.81421 0 0 2.81421 0 6.28572V37.7143C0 41.1858 2.81421 44 6.28572 44H37.7143C41.1858 44 44 41.1858 44 37.7143V6.28572C44 2.81421 41.1858 0 37.7143 0Z" fill="#7651A6" fill-opacity="0.23"/>
<path fill-rule="evenodd" clip-rule="evenodd" d="M14.2912 11.4008C14.8075 10.6786 15.6406 10.25 16.5284 10.25H27.4709C28.3586 10.25 29.1918 10.6786 29.708 11.4008L34.6573 18.3245C35.419 19.39 35.3235 20.8448 34.4291 21.8016L24.0086 32.9492C22.9217 34.1119 21.0776 34.1119 19.9907 32.9492L9.57017 21.8016C8.67576 20.8448 8.58027 19.39 9.34193 18.3245L14.2912 11.4008ZM16.5284 11.75C16.1249 11.75 15.7462 11.9448 15.5115 12.2731L10.5622 19.1968C10.216 19.6811 10.2594 20.3424 10.666 20.7773L21.0865 31.9249C21.5805 32.4534 22.4187 32.4534 22.9128 31.9249L33.3333 20.7773C33.7399 20.3424 33.7833 19.6811 33.4371 19.1968L28.4878 12.2731C28.2531 11.9448 27.8744 11.75 27.4709 11.75H16.5284Z" fill="#7651A6"/>
</svg>
